<svg xmlns="http://www.w3.org/2000/svg" fill="none" viewBox="0 0 1442.0483641536273 589.824" style="max-height: 500px" width="1442.0483641536273" height="589.824">
<g clip-path="url(#clip0_40_275)">
<rect fill="white" height="1024" width="1440"/>
<rect fill="url(#paint0_linear_40_275)" height="600" width="1440" y="-9.26709"/>
<path fill="white" d="M645.615 268.185C645.615 268.185 1329.96 -458.132 1232.63 -164.925C1135.31 128.282 1285.14 408.043 1684.44 447.438L1097.43 880.548L645.615 268.185Z"/>
<path fill="white" d="M711 -428.267H1416C1192.91 -42.7813 1128.08 166.162 1416 490.733H711V-428.267Z"/>
<path fill="white" d="M633 -628.268H1458C1196.94 -202.094 1121.08 28.9039 1458 387.732H633L633 -628.268Z"/>
<path fill="white" d="M594 -366.216L1146.06 -612.267C1140.93 -153.956 1182.08 74.8824 1550.3 294.728L998.248 540.779L594 -366.216Z"/>
<rect fill="white" height="77" width="132" y="330.731" x="1400"/>
<path fill="white" d="M437 162.263L922.397 -545.267C856.502 -261.208 859.408 -163.537 1131.48 -401.824L646.087 305.706C644.264 207.065 558.448 201.461 437 162.263Z"/>
<path fill="white" d="M254.798 -8.9072L765.303 -700C713.762 -400.052 726.446 -292.462 1027.55 -506.279L517.046 184.813C449.316 168.264 342.206 154.213 254.798 -8.9072Z"/>
<g opacity="0.3">
<path fill="#E6E6E6" d="M738.92 85.5436C684.226 127.013 651.809 203.112 656.959 282.58C659.587 323.216 671.713 362.414 703.782 383.817C789.305 440.898 1162.65 441.882 1217.91 340.998C1273.17 240.126 1252.6 96.7881 1132.44 37.0828C1028.29 -14.6844 880.177 -21.5244 738.92 85.5436Z"/>
</g>
<g opacity="0.03">
<path fill="#000001" d="M961.431 550.3C1126.28 550.3 1259.91 535.904 1259.91 518.145C1259.91 500.385 1126.28 485.989 961.431 485.989C796.584 485.989 662.948 500.385 662.948 518.145C662.948 535.904 796.584 550.3 961.431 550.3Z"/>
</g>
<path fill="#24285B" d="M953.08 82.5023C953.08 82.5023 950.092 57.1487 1031.44 63.0044C1112.79 68.8475 1141.2 65.3643 1168.51 128.212C1195.81 191.06 1183.51 298.531 1115.85 326.056C1048.19 353.58 887.18 362.389 953.08 82.5023Z"/>
<g opacity="0.1">
<path fill="white" d="M953.08 82.5023C953.08 82.5023 950.092 57.1487 1031.44 63.0044C1112.79 68.8475 1141.2 65.3643 1168.51 128.212C1195.81 191.06 1183.51 298.531 1115.85 326.056C1048.19 353.58 887.18 362.389 953.08 82.5023Z"/>
</g>
<path fill="#68E1FD" d="M910.539 92.6487C910.539 92.6487 846.333 125.221 834.941 191.476C823.562 257.744 728.087 273.746 728.087 273.746L733.57 300.626C733.57 300.626 853.697 290.24 908.698 194.972C908.698 194.972 934.604 148.391 910.539 92.6487Z"/>
<g opacity="0.46">
<path fill="white" d="M910.539 92.6487C910.539 92.6487 846.333 125.221 834.941 191.476C823.562 257.744 728.087 273.746 728.087 273.746L733.57 300.626C733.57 300.626 853.697 290.24 908.698 194.972C908.698 194.972 934.604 148.391 910.539 92.6487Z"/>
</g>
<path fill="#F4A28C" d="M973.877 31.505C973.877 31.505 972.556 44.5036 974.797 53.1609C975.704 56.6819 979.506 58.8651 983.215 57.9565C987.817 56.8333 993.687 54.0443 995.287 47.1664L999.516 35.7958C999.516 35.7958 1001.9 28.5897 994.18 23.2262C986.456 17.8627 974.277 23.5417 973.89 31.4923L973.877 31.505Z"/>
<path fill="#F4A28C" d="M998.236 41.6514L1001.12 84.3322L976.131 84.1555L984.069 53.1734L998.236 41.6514Z"/>
<path fill="#24285B" d="M977.292 32.0727C979.693 32.2116 984.122 32.2368 990.018 31.2524C990.018 31.2524 985.656 36.8936 989.912 43.191C994.167 49.4883 1001.2 46.8255 1001.2 46.8255L1001.13 30.0535C1001.28 25.1696 998.596 20.5759 994.127 18.1403C992.299 17.1433 990.272 16.1463 988.231 15.3512C983.148 13.3699 975.638 16.5249 971.102 13.2311C969.114 11.7924 966.193 12.903 965.806 15.2503C964.966 20.3488 965.846 28.3751 973.116 31.2272C974.45 31.7446 975.878 31.9844 977.305 32.0601L977.292 32.0727Z"/>
<path fill="#F4A28C" d="M988.431 42.7998C988.431 42.7998 988.577 37.777 992.566 38.1935C996.555 38.6099 996.381 45.8791 990.952 46.5101L988.431 42.7998Z"/>
<path fill="#F4A28C" d="M973.49 39.7332L969.595 44.7307C968.635 45.9674 969.355 47.7216 970.942 48.0245L976.212 49.0089L973.49 39.7332Z"/>
<g opacity="0.31">
<path fill="#CE8172" d="M984.362 54.2081C984.362 54.2081 989.044 54.6372 993.5 52.1006C993.5 52.1006 992.726 59.9755 981.641 64.8215L984.362 54.2081Z"/>
</g>
<path fill="#68E1FD" d="M926.12 503.341C926.12 503.341 920.97 511.418 912.513 510.509C904.055 509.601 900.253 516.883 907.31 520.303C914.367 523.723 935.564 518.283 935.564 518.283L937.925 503.758L926.12 503.354V503.341Z"/>
<path fill="#68E1FD" d="M1078.94 503.341C1078.94 503.341 1084.09 511.418 1092.55 510.509C1101.01 509.601 1104.81 516.883 1097.75 520.303C1090.7 523.723 1069.5 518.283 1069.5 518.283L1067.14 503.758L1078.94 503.354V503.341Z"/>
<path fill="#24285B" d="M956.602 74.5895C956.602 74.5895 875.801 72.482 862.421 132.856C849.041 193.23 868.464 252.267 906.043 258.753C943.622 265.24 978.586 74.5769 978.586 74.5769H956.602V74.5895Z"/>
<path fill="#68E1FD" d="M877.095 145.867C878.643 113.106 905.63 86.4019 940.153 83.4741C983.415 79.789 1047.89 78.3503 1095.2 94.9583C1172.99 122.255 1082.41 257.58 1067.14 309.536L940.887 314.937C940.887 314.937 873.16 229.273 877.082 145.88L877.095 145.867Z"/>
<g opacity="0.08">
<path fill="#000001" d="M1008.45 121.7L995.315 165.769C995.315 165.769 958.216 153.237 956.682 183.79C955.148 214.343 974.784 262.993 988.418 279.765C1002.05 296.537 977.812 314.319 977.812 314.319L1067.14 309.536L1093.26 234.51L1119.68 204.146V175.562L1078.16 121.687L1052.01 98.6558L1008.43 121.687L1008.45 121.7Z"/>
</g>
<path fill="#24285B" d="M991.872 156.14C991.872 156.14 1013.59 88.4841 1057.92 85.7708C1116.09 82.212 1127.77 117.523 1127.77 117.523C1127.77 117.523 1086.76 83.3604 1053.01 112.853C1019.25 142.346 1019.87 180.295 1030.67 212.513C1041.44 244.732 1095.23 259.081 1095.23 259.081L1070.23 300.475C1070.23 300.475 959.47 241.325 991.886 156.14H991.872Z"/>
<path fill="#FFD200" d="M979.8 14.7833C979.8 14.7833 980.734 33.9026 1001.62 38.6225C1001.62 38.6225 1011.79 28.5391 1007.33 19.6294C1002.88 10.7197 991.792 2.59242 979.8 14.796V14.7833Z"/>
<path fill="#68E1FD" d="M1045.21 131.897C1042.71 101.003 1080.08 81.2655 1106.54 99.5014C1140.32 122.76 1175.79 168.003 1148.08 250.31C1101.09 389.913 981.054 184.421 981.054 184.421L1004.87 162.324C1004.87 162.324 1043.91 226.787 1085.35 234.838C1117.54 241.098 1050.1 192.448 1045.21 131.91V131.897Z"/>
<g opacity="0.46">
<path fill="white" d="M1045.21 131.897C1042.71 101.003 1080.08 81.2655 1106.54 99.5014C1140.32 122.76 1175.79 168.003 1148.08 250.31C1101.09 389.913 981.054 184.421 981.054 184.421L1004.87 162.324C1004.87 162.324 1043.91 226.787 1085.35 234.838C1117.54 241.098 1050.1 192.448 1045.21 131.91V131.897Z"/>
</g>
<path fill="#F4A28C" d="M985.323 180.459C985.323 180.459 963.165 163.914 972.716 155.559C982.268 147.205 991.699 149.931 998.329 168.394L985.323 180.459Z"/>
<path fill="#F4A28C" d="M729.315 279.753C729.315 279.753 709.491 281.255 703.142 288.524C696.792 295.793 720.377 292.36 733.57 300.626L729.315 279.753Z"/>
<path fill="#FFD200" d="M723.392 293.635H715.374C695.983 293.635 680.263 308.506 680.263 326.851V482.632C680.263 500.977 695.983 515.848 715.374 515.848H723.392C742.783 515.848 758.503 500.977 758.503 482.632V326.851C758.503 308.506 742.783 293.635 723.392 293.635Z"/>
<g opacity="0.08">
<path fill="#000001" d="M721.204 293.635C721.204 293.635 732.156 423.457 731.783 424.555C731.396 425.64 717.829 515.848 717.829 515.848H723.805C742.975 515.848 758.503 501.145 758.503 483.023V326.459C758.503 308.337 742.975 293.647 723.819 293.647H721.217L721.204 293.635Z"/>
</g>
<path fill="#FFD200" d="M758.303 348.544H684.105V358.729H758.303V348.544Z"/>
<g opacity="0.46">
<path fill="white" d="M758.303 348.544H684.105V358.729H758.303V348.544Z"/>
</g>
<path fill="#24285B" d="M693.71 338.979H674.487V369.267H693.71V338.979Z"/>
<path fill="#24285B" d="M768.107 338.979H748.885V369.267H768.107V338.979Z"/>
<path fill="#FFD200" d="M758.303 448.558H684.105V458.742H758.303V448.558Z"/>
<g opacity="0.46">
<path fill="white" d="M758.303 448.558H684.105V458.742H758.303V448.558Z"/>
</g>
<path fill="#24285B" d="M693.71 439.005H674.487V469.293H693.71V439.005Z"/>
<path fill="#24285B" d="M768.107 439.005H748.885V469.293H768.107V439.005Z"/>
<path fill="#24285B" d="M940.901 314.937L920.771 505.979H945.53L971.089 412.149C982.121 371.664 1010.76 337.477 1049.92 318.08L1067.14 309.549L940.887 314.95L940.901 314.937Z"/>
<path fill="#24285B" d="M1067.15 309.536L1086.25 505.979H1059.8L1029.72 397.485C1021.54 367.992 1002.58 342.209 976.211 324.68L1067.15 309.536Z"/>
<path fill="#FFD200" d="M1191.77 157.932H1176.14V521.426H1191.77V157.932Z"/>
<g opacity="0.46">
<path fill="white" d="M1191.77 157.932H1176.14V521.426H1191.77V157.932Z"/>
</g>
<path fill="#FFD200" d="M1276.57 139.102L1185.84 53.2737L1095.12 139.102L1185.84 224.93L1276.57 139.102Z"/>
<g opacity="0.08">
<path fill="#000001" d="M1276.57 139.102L1185.84 53.2737L1095.12 139.102L1185.84 224.93L1276.57 139.102Z"/>
</g>
<path fill="#FFD200" d="M1257.13 139.102L1185.85 71.6653L1114.57 139.102L1185.85 206.538L1257.13 139.102Z"/>
<path fill="#24285B" d="M1210.69 107.97H1158.52V157.327H1210.69V107.97Z"/>
<path fill="#24285B" d="M1172.43 151.016H1162.69V168.192H1172.43V151.016Z"/>
<path fill="#24285B" d="M1205.47 151.016H1195.73V168.192H1205.47V151.016Z"/>
<path fill="#FFD200" d="M1202.27 114.847H1166.43V134.484H1202.27V114.847Z"/>
<path fill="#24285B" d="M1187.22 112.576H1181.46V136.604H1187.22V112.576Z"/>
<path fill="#FFD200" d="M1168 149.262C1170.16 149.262 1171.91 147.607 1171.91 145.565C1171.91 143.522 1170.16 141.867 1168 141.867C1165.84 141.867 1164.09 143.522 1164.09 145.565C1164.09 147.607 1165.84 149.262 1168 149.262Z"/>
<path fill="#FFD200" d="M1200.6 149.262C1202.76 149.262 1204.51 147.607 1204.51 145.565C1204.51 143.522 1202.76 141.867 1200.6 141.867C1198.44 141.867 1196.69 143.522 1196.69 145.565C1196.69 147.607 1198.44 149.262 1200.6 149.262Z"/>
</g>
<defs>
<linearGradient gradientUnits="userSpaceOnUse" y2="-9.26717" x2="1440" y1="590.733" x1="-2.14577e-05" id="paint0_linear_40_275">
<stop stop-color="#0A202B"/>
<stop stop-color="#105F86" offset="1"/>
</linearGradient>
<clipPath id="clip0_40_275">
<rect fill="white" height="1024" width="1440"/>
</clipPath>
</defs>
</svg>