<svg width="1441" height="924" viewBox="0 0 1441 924" fill="none" xmlns="http://www.w3.org/2000/svg">
<mask id="mask0_1211_726" style="mask-type:luminance" maskUnits="userSpaceOnUse" x="0" y="0" width="1441" height="924">
<path d="M1117.6 923.256H0V0.000366211H1440.39V382.479C1437.24 379.531 1434.93 375.621 1431.33 373.727C1312.37 311.109 1260.43 155.854 1170.02 70.8737C1136.97 39.8129 1113.01 21.6292 1062.86 0.000366211H210.761L227.507 71.2219C235.459 111.127 253.311 150.893 270.815 180.12C296.295 222.742 331.535 259.652 373.916 285.652C447.572 330.897 538.06 344.477 608.657 394.365C617.541 400.644 625.961 407.379 633.976 414.503V555.249H712.988V653.306H798.422C798.953 654.109 799.486 654.91 800.022 655.711C823.73 691.197 850.691 724.305 880.3 754.885C777.781 756.826 704.484 761.986 704.484 768.045C704.484 774.631 791.029 780.154 907.555 781.637C969.388 839.332 1040.97 886.912 1117.6 923.256Z" fill="white"/>
</mask>
<g mask="url(#mask0_1211_726)">
<path d="M1117.6 923.256H0V0.000366211H1440.39V382.479C1437.24 379.531 1434.93 375.621 1431.33 373.727C1312.37 311.109 1260.43 155.854 1170.02 70.8736C1136.97 39.8129 1113.01 21.6291 1062.86 0.000366211H210.761L227.507 71.2219C235.459 111.127 253.311 150.893 270.815 180.12C296.295 222.742 331.535 259.652 373.916 285.652C447.572 330.897 538.06 344.477 608.657 394.365C617.541 400.644 625.961 407.379 633.976 414.503V555.249H712.988V653.306H798.422C798.953 654.109 799.486 654.91 800.022 655.711C823.73 691.197 850.691 724.305 880.3 754.885C777.781 756.826 704.484 761.986 704.484 768.045C704.484 774.631 791.029 780.154 907.555 781.637C969.388 839.332 1040.97 886.912 1117.6 923.256Z" fill="url(#paint0_linear_1211_726)" fill-opacity="0.8"/>
</g>
<path d="M1440.39 382.479V923.256H1117.6C990.825 863.131 877.894 772.27 800.021 655.711C739.6 565.247 697.474 457.136 608.655 394.365C538.059 344.477 447.571 330.897 373.915 285.652C331.534 259.652 296.294 222.742 270.814 180.12C253.31 150.893 235.458 111.127 227.506 71.2219L210.76 0.000369949H1062.86C1113.01 21.6291 1136.97 39.8129 1170.02 70.8736C1260.43 155.854 1312.37 311.109 1431.33 373.727C1434.92 375.621 1437.24 379.531 1440.39 382.479Z" fill="white"/>
<g clip-path="url(#clip0_1211_726)">
<path d="M1267.69 251.758C1269.29 295.546 1269.7 339.307 1269.64 383.12C1269.64 384.424 1269.64 385.729 1269.64 387.073C1269.62 403.316 1269.58 419.559 1269.53 435.802C1261.7 435.909 1253.88 435.975 1246.05 436.033C1243.83 436.063 1241.61 436.094 1239.32 436.126C1237.18 436.138 1235.05 436.15 1232.85 436.162C1230.88 436.181 1228.91 436.201 1226.89 436.22C1221.69 435.805 1218.7 434.806 1214.29 432.122C1213.04 434.48 1213.04 434.48 1211.77 436.885C1197.68 463.49 1183.58 490.088 1169.1 516.487C1161.76 529.886 1154.53 543.341 1147.32 556.812C1146.74 557.9 1146.15 558.988 1145.55 560.108C1144.97 561.196 1144.39 562.284 1143.79 563.405C1142.61 565.603 1141.44 567.8 1140.26 569.997C1139.39 571.63 1139.39 571.63 1138.5 573.295C1129.27 590.54 1119.98 607.751 1110.69 624.968C1105.33 634.916 1099.97 644.866 1094.61 654.816C1092.47 658.804 1090.32 662.791 1088.17 666.779C1086.57 669.74 1086.57 669.74 1084.95 672.76C1081.73 678.742 1078.5 684.723 1075.28 690.705C1074.22 692.679 1073.15 694.654 1072.06 696.689C1069.91 700.668 1067.77 704.646 1065.63 708.625C1060.18 718.729 1054.74 728.835 1049.31 738.945C1036.31 763.122 1023.21 787.235 1009.92 811.254C1005.12 811.088 1000.33 810.891 995.534 810.679C994.246 810.638 992.959 810.596 991.632 810.553C986.66 810.319 981.733 809.89 976.777 809.414C975.574 809.307 974.371 809.199 973.132 809.089C947.445 806.596 926.696 798.206 903.704 786.868C900.478 785.313 897.25 783.763 894.02 782.217C889.277 779.945 884.536 777.672 879.803 775.382C869.842 770.572 859.826 765.924 849.698 761.476C848.499 760.946 847.299 760.416 846.063 759.87C840.606 757.502 835.325 755.379 829.481 754.2C828.769 755.54 828.058 756.879 827.325 758.259C815.127 781.2 802.912 804.112 790.01 826.668C779.073 845.796 768.68 865.195 758.372 884.666C757.466 886.376 757.466 886.376 756.542 888.121C754.901 891.218 753.265 894.318 751.628 897.417C748.227 903.724 744.659 909.939 741.103 916.16C861.407 916.16 981.711 916.16 1105.66 916.16C1105.66 906.442 1105.66 896.725 1105.66 886.713C1103.23 886.713 1100.8 886.713 1098.3 886.713C1095.53 881.186 1096.28 876.055 1096.34 869.919C1096.36 867.56 1096.37 865.202 1096.39 862.772C1096.42 860.046 1096.42 860.046 1096.45 857.265C1091.59 857.265 1086.73 857.265 1081.73 857.265C1081.67 850.479 1081.64 843.692 1081.61 836.905C1081.59 834.994 1081.58 833.083 1081.56 831.115C1081.53 821.237 1081.64 811.758 1083.57 802.052C1085.41 800.211 1085.41 800.211 1089.17 800.003C1090.78 800.012 1092.39 800.022 1094.05 800.032C1095.78 800.038 1097.52 800.044 1099.31 800.05C1101.14 800.065 1102.97 800.081 1104.86 800.096C1106.69 800.105 1108.53 800.113 1110.42 800.122C1114.97 800.143 1119.52 800.174 1124.07 800.211C1124.04 799.081 1124 797.951 1123.96 796.786C1123.93 795.3 1123.9 793.813 1123.87 792.282C1123.83 790.81 1123.8 789.338 1123.76 787.821C1124.07 783.647 1124.07 783.647 1127.3 778.011C1137.48 771.942 1148.23 773.082 1159.63 775.258C1169.46 778.308 1176.89 784.634 1182.99 792.85C1183.67 795.288 1184.29 797.741 1184.83 800.211C1186.21 800.183 1187.58 800.154 1189 800.124C1195.21 800.009 1201.41 799.937 1207.62 799.866C1210.86 799.797 1210.86 799.797 1214.18 799.726C1216.24 799.708 1218.31 799.691 1220.43 799.672C1222.34 799.643 1224.25 799.614 1226.22 799.585C1227.75 799.792 1229.28 799.998 1230.86 800.211C1234.58 805.782 1235.07 807.381 1235.47 813.722C1235.64 816.139 1235.64 816.139 1235.8 818.605C1235.91 820.348 1236.01 822.09 1236.11 823.886C1236.23 825.696 1236.35 827.506 1236.47 829.371C1236.71 833.215 1236.95 837.06 1237.18 840.905C1237.53 846.706 1237.91 852.505 1238.28 858.304C1238.52 862.053 1238.76 865.803 1238.99 869.552C1239.1 871.253 1239.21 872.955 1239.32 874.708C1240.14 888.598 1240.07 902.169 1240.07 916.16C1286.25 916.16 1332.42 916.16 1380 916.16C1380 916.767 1380 917.375 1380 918C1096.86 918 813.72 918 522 918C522 917.393 522 916.786 522 916.16C551.772 916.16 581.544 916.16 612.219 916.16C613.434 913.123 614.649 910.086 615.901 906.958C617.618 903.555 619.384 900.178 621.188 896.821C622.236 894.868 623.285 892.916 624.365 890.904C626.043 887.805 626.043 887.805 627.754 884.642C628.897 882.522 630.041 880.402 631.218 878.218C639.166 863.528 647.364 849 655.875 834.629C656.651 833.314 657.428 831.999 658.227 830.644C658.902 829.512 659.577 828.381 660.272 827.215C662.207 823.836 662.207 823.836 663.773 818.616C662.188 818.124 660.603 817.632 658.971 817.125C652.736 814.939 647.07 812.318 641.175 809.342C639.05 808.274 636.926 807.207 634.738 806.107C632.525 804.985 630.312 803.864 628.099 802.742C625.844 801.606 623.588 800.47 621.331 799.334C615.836 796.566 610.343 793.791 604.854 791.009C604.854 789.187 604.854 787.365 604.854 785.488C609.839 783.827 612.657 783.429 617.764 783.468C619.856 783.477 619.856 783.477 621.989 783.486C623.436 783.501 624.883 783.517 626.373 783.532C627.841 783.541 629.309 783.549 630.821 783.558C634.44 783.579 638.059 783.612 641.678 783.647C642.286 786.077 642.893 788.506 643.519 791.009C644.127 789.187 644.735 787.365 645.361 785.488C652.044 785.488 658.728 785.488 665.614 785.488C667.55 782.584 667.55 782.584 669.526 779.621C670.253 778.533 670.979 777.444 671.727 776.322C673.504 772.451 673.504 772.451 670.999 768.308C669.296 763.403 669.296 763.403 670.461 759.177C671.221 757.737 671.982 756.297 672.765 754.814C674.038 752.345 674.038 752.345 675.335 749.827C676.281 748.074 677.226 746.322 678.2 744.516C679.618 741.792 679.618 741.792 681.064 739.012C684.092 733.207 687.164 727.427 690.24 721.647C693.294 715.844 696.338 710.036 699.376 704.224C701.27 700.607 703.176 696.996 705.093 693.391C705.952 691.762 706.812 690.134 707.698 688.457C708.843 686.304 708.843 686.304 710.011 684.107C711.902 680.673 711.902 680.673 711.644 676.901C710.775 677.53 709.906 678.158 709.011 678.806C704.902 681.776 700.793 684.745 696.684 687.714C695.176 688.804 693.669 689.893 692.116 691.016C684.155 696.765 676.178 702.486 668.164 708.16C656.614 716.342 645.344 724.813 634.198 733.538C628.832 737.604 623.38 741.325 617.742 744.998C616.165 742.858 614.588 740.718 613.01 738.578C611.979 737.179 610.948 735.78 609.885 734.339C607.581 731.213 605.277 728.086 602.973 724.959C596.961 716.799 590.942 708.644 584.903 700.504C583.771 698.975 582.639 697.447 581.473 695.872C579.325 692.973 577.174 690.075 575.02 687.18C568.088 677.812 561.524 668.247 555.142 658.497C564.528 657.812 570.451 659.907 578.847 664.018C580.969 665.043 583.091 666.068 585.277 667.124C586.877 667.921 588.476 668.718 590.124 669.54C590.124 672.576 590.124 675.613 590.124 678.742C590.732 678.134 591.34 677.527 591.966 676.901C595.648 675.751 595.648 675.751 599.33 675.061C602.371 678.101 601.172 681.978 601.172 686.104C601.779 686.711 602.387 687.318 603.013 687.944C603.62 685.515 604.228 683.085 604.854 680.582C606.031 681.19 607.209 681.797 608.421 682.423C611.792 684.397 611.792 684.397 614.06 684.263C617.926 682.134 617.926 682.134 621.425 678.742C621.636 677.318 621.847 675.895 622.065 674.428C623.648 667.984 626.422 665.88 631.436 661.603C633.107 660.167 634.778 658.732 636.5 657.253C642.753 652.088 649.04 646.977 655.408 641.954C660.156 638.2 664.846 634.384 669.526 630.545C679.09 622.707 688.68 614.902 698.285 607.114C704.606 601.989 710.916 596.853 717.203 591.687C734.029 577.889 751.211 564.669 768.721 551.751C765.365 537.188 761.1 523.39 755.833 509.42C753.811 503.947 751.825 498.462 749.849 492.971C749.351 491.62 748.853 490.268 748.34 488.876C746.021 482.416 744.785 477.715 744.785 470.771C754.682 466.867 764.327 463.86 774.705 461.569C777.436 460.947 780.167 460.324 782.897 459.7C784.229 459.397 785.562 459.095 786.934 458.783C795.625 456.779 804.266 454.564 812.91 452.367C817.082 461.013 820.611 469.542 823.166 478.809C823.641 480.474 824.115 482.14 824.604 483.855C825.562 487.278 826.467 490.715 827.323 494.165C828.821 499.225 830.183 503.215 833.163 507.58C837.785 509.767 842.117 510.789 847.111 511.85C851.894 513.191 854.043 514.476 857.401 518.076C861.541 525.509 860.815 530.376 859.63 538.408C859.09 545.247 858.737 551.067 863.214 556.595C869.835 562.211 877.32 566.272 885.023 570.212C889.28 572.461 893.116 575.183 897.03 577.977C899.042 579.04 901.055 580.103 903.129 581.198C907.171 579.701 907.171 579.701 910.494 577.517C909.739 576.779 908.984 576.041 908.206 575.281C900.154 566.789 897.283 559.612 895.764 548.07C892.726 548.07 889.688 548.07 886.558 548.07C885.95 549.892 885.343 551.714 884.717 553.591C880.464 552.984 876.21 552.377 871.828 551.751C871.828 549.929 871.828 548.107 871.828 546.229C870.613 546.229 869.398 546.229 868.146 546.229C867.064 537.035 866.675 531.562 872.519 524.029C880.33 518.744 888.566 518.762 897.605 520.463C906.824 523.903 912.312 528.507 916.593 537.372C917.079 538.613 917.566 539.854 918.067 541.132C919.69 545.041 919.69 545.041 925.223 548.07C925.401 547.011 925.579 545.952 925.762 544.861C928.178 531.612 932.125 519.149 936.501 506.43C937.186 504.406 937.872 502.382 938.579 500.297C940.254 495.36 941.94 490.426 943.635 485.495C946.044 492.718 944.355 495.893 942.031 503.101C941.476 504.853 941.476 504.853 940.909 506.641C939.723 510.371 938.516 514.095 937.306 517.818C936.107 521.548 934.912 525.28 933.723 529.014C932.643 532.399 931.55 535.779 930.456 539.159C928.731 544.068 928.731 544.068 928.906 548.07C933.766 548.677 938.627 549.285 943.635 549.91C944.144 548.302 944.652 546.694 945.176 545.037C947.173 539.285 949.474 533.977 952.122 528.501C953.057 526.56 953.992 524.619 954.956 522.62C955.929 520.618 956.902 518.615 957.904 516.552C958.849 514.593 959.794 512.633 960.767 510.614C964.627 502.625 968.485 494.647 972.566 486.768C974.07 483.86 974.07 483.86 975.604 480.893C976.517 479.162 977.429 477.43 978.369 475.645C982.935 464.999 980.888 454.226 978.618 443.164C979.226 444.379 979.833 445.594 980.459 446.845C984.306 444.731 984.306 444.731 987.824 441.324C988.713 436.707 988.713 436.707 988.284 431.777C988.218 430.118 988.151 428.46 988.083 426.751C987.997 425.487 987.912 424.222 987.824 422.919C986.449 422.738 985.073 422.556 983.656 422.368C976.288 420.482 973.087 416.909 968.34 411.138C963.212 401.744 964.336 391.7 964.809 381.279C964.852 379.068 964.894 376.857 964.938 374.579C965.179 364.733 965.793 355.32 967.571 345.62C966.394 345.051 965.216 344.482 964.003 343.895C960.206 341.94 960.206 341.94 958.365 340.099C957.824 333.249 958.092 331.306 962.047 325.376C961.99 322.642 961.99 322.642 961.932 319.854C962.047 314.333 962.047 314.333 964.464 310.882C967.571 308.811 967.571 308.811 973.094 308.811C973.436 306.648 973.436 306.648 973.785 304.44C976.777 299.609 976.777 299.609 980.538 298.114C990.999 295.78 1001.29 295.116 1011.76 297.769C1013.58 298.983 1015.41 300.198 1017.28 301.45C1019.41 301.753 1021.54 302.057 1023.73 302.37C1030.17 303.29 1030.17 303.29 1035.7 306.971C1035.7 308.186 1035.7 309.4 1035.7 310.652C1037.4 310.652 1039.11 310.652 1040.87 310.652C1046.74 312.492 1046.74 312.492 1048.64 315.569C1051.19 322.346 1052.99 329.26 1054.11 336.418C1051.37 337.329 1051.37 337.329 1048.58 338.259C1048.58 347.976 1048.58 357.694 1048.58 367.706C1050.41 368.313 1052.23 368.921 1054.11 369.546C1054.26 372.229 1054.36 374.913 1054.45 377.598C1054.55 379.84 1054.55 379.84 1054.65 382.128C1054.47 383.442 1054.29 384.756 1054.11 386.11C1048.58 389.791 1048.58 389.791 1041.22 389.791C1041.09 414.525 1041.09 414.525 1052.27 435.802C1055.69 438.504 1059.19 441.108 1062.75 443.624C1064.58 444.925 1066.41 446.225 1068.29 447.564C1069.69 448.542 1071.08 449.519 1072.52 450.526C1073.32 449.008 1074.13 447.489 1074.96 445.925C1078.03 440.15 1081.1 434.377 1084.17 428.605C1085.53 426.049 1086.89 423.493 1088.24 420.937C1096.64 405.131 1105.05 389.345 1114.31 374.022C1116.35 370.645 1116.35 370.645 1118.55 365.865C1116.43 359.495 1115.11 358.758 1109.68 355.168C1108.28 354.214 1106.87 353.26 1105.42 352.278C1102.43 350.29 1099.44 348.306 1096.44 346.325C1095.04 345.371 1093.64 344.418 1092.19 343.435C1090.89 342.574 1089.59 341.713 1088.25 340.825C1087.31 339.978 1086.37 339.131 1085.41 338.259C1085.41 336.437 1085.41 334.615 1085.41 332.737C1089.1 330.059 1092.66 327.821 1096.61 325.584C1097.79 324.895 1098.97 324.207 1100.18 323.497C1102.74 322.009 1105.29 320.529 1107.85 319.058C1113.26 315.951 1118.65 312.802 1124.03 309.653C1126.78 308.045 1129.53 306.439 1132.28 304.835C1145.05 297.383 1157.64 289.671 1170.22 281.895C1172.2 280.692 1174.18 279.488 1176.22 278.249C1184.24 273.36 1192.13 268.509 1199.61 262.815C1220.36 247.514 1242.9 250.11 1267.69 251.758Z" fill="#FE4F74"/>
<path d="M985.983 441.323C987.806 442.234 987.806 442.234 989.665 443.164C989.665 444.986 989.665 446.808 989.665 448.685C993.311 446.863 996.956 445.041 1000.71 443.164C1001.32 448.63 1001.93 454.096 1002.55 459.728C1004.64 458.511 1006.72 457.294 1008.87 456.04C1011.6 454.469 1014.32 452.9 1017.05 451.331C1018.43 450.525 1019.8 449.72 1021.22 448.89C1023.19 447.76 1023.19 447.76 1025.21 446.607C1026.42 445.904 1027.64 445.2 1028.89 444.475C1029.92 444.042 1030.95 443.61 1032.01 443.164C1033.23 443.771 1034.44 444.378 1035.7 445.004C1033.92 445.982 1032.14 446.959 1030.32 447.966C1027.97 449.279 1025.62 450.592 1023.27 451.906C1021.52 452.867 1021.52 452.867 1019.73 453.847C1013 457.631 1007.95 461.492 1002.55 467.09C1001.34 467.09 1000.12 467.09 998.871 467.09C998.264 465.875 997.656 464.66 997.03 463.409C993.724 468.366 992.596 470.874 991.298 476.448C990.941 477.954 990.585 479.459 990.218 481.011C989.845 482.632 989.473 484.254 989.09 485.925C988.695 487.603 988.3 489.28 987.894 491.008C986.632 496.376 985.386 501.748 984.142 507.119C982.894 512.464 981.643 517.808 980.39 523.151C979.611 526.475 978.836 529.8 978.066 533.125C976.027 541.869 973.803 550.503 971.253 559.112C978.544 560.934 985.836 562.756 993.348 564.633C995.17 560.989 996.993 557.345 998.871 553.591C1000.71 559.112 1000.71 559.112 999.447 563.023C998.663 570.233 1001.42 574.499 1004.53 580.903C1006.5 585.502 1006.88 589.121 1006.24 594.081C1002.55 588.559 1002.55 588.559 1001.37 584.281C999.237 576.664 997.532 571.571 990.577 567.366C984.724 565.212 978.907 563.529 972.864 561.988C970.856 561.415 968.848 560.842 966.78 560.252C962.82 559.127 958.852 558.033 954.875 556.971C946.779 554.79 938.763 552.362 930.747 549.91C930.462 552.472 930.462 552.472 930.171 555.086C928.836 564.624 926.039 573.799 923.382 583.038C940.771 592.312 958.536 600.419 976.777 607.884C978.731 608.703 980.686 609.523 982.699 610.367C994.862 615.255 1005.03 618.924 1018 614.75C1019.7 613.799 1019.7 613.799 1021.43 612.83C1023.23 611.83 1023.23 611.83 1025.08 610.81C1028.81 608.511 1032.33 606.086 1035.7 603.283C1032.01 611.561 1027.42 617.838 1020.05 623.183C1007.88 627.309 994.92 627.439 982.991 622.377C978.52 620.139 974.403 617.659 970.21 614.929C961.029 608.45 961.029 608.45 950.31 607.769C945.989 610.339 942.1 613.12 938.112 616.166C939 616.748 939.888 617.331 940.803 617.93C962.062 631.898 982.717 646.229 1002.55 662.177C1001.54 668.835 999.954 673.295 996.088 678.799C995.147 680.139 994.206 681.48 993.236 682.861C992.248 684.234 991.259 685.608 990.241 687.023C989.288 688.397 988.335 689.771 987.353 691.186C980.824 700.37 974.176 708.568 963.888 713.71C941.465 715.642 920.379 708.549 901.125 697.644C891.849 692.393 882.38 687.886 872.634 683.572C870.351 682.561 870.351 682.561 868.022 681.529C864.842 680.122 861.661 678.717 858.48 677.312C847.59 672.469 836.763 667.483 825.927 662.52C824.306 661.78 822.685 661.041 821.015 660.279C818.865 659.295 818.865 659.295 816.671 658.291C812.669 656.485 812.669 656.485 807.386 654.815C806.563 656.174 805.741 657.533 804.893 658.933C777.199 704.643 777.199 704.643 763.773 726.248C752.149 744.956 740.673 763.752 729.254 782.586C726.664 786.849 724.061 791.105 721.454 795.358C713.167 808.932 705.584 822.645 698.755 837.02C689.67 834.288 681.619 830.48 673.245 826.121C671.195 825.065 671.195 825.065 669.103 823.988C666.218 822.5 663.336 821.009 660.455 819.514C656.112 817.261 651.763 815.018 647.414 812.778C632.512 805.088 617.679 797.3 603.013 789.168C604.854 785.487 604.854 785.487 610.378 783.647C612.836 783.5 615.301 783.449 617.764 783.467C619.856 783.476 619.856 783.476 621.989 783.485C624.159 783.508 624.159 783.508 626.373 783.532C627.841 783.54 629.309 783.548 630.821 783.557C634.44 783.579 638.059 783.612 641.678 783.647C642.286 786.076 642.893 788.506 643.519 791.009C644.127 789.187 644.734 787.365 645.36 785.487C652.044 785.487 658.728 785.487 665.614 785.487C667.55 782.583 667.55 782.583 669.526 779.621C670.253 778.532 670.979 777.443 671.727 776.321C673.504 772.451 673.504 772.451 670.999 768.308C669.296 763.402 669.296 763.402 670.461 759.176C671.221 757.736 671.982 756.296 672.765 754.813C673.614 753.167 674.462 751.522 675.335 749.826C676.281 748.074 677.226 746.321 678.2 744.516C679.145 742.699 680.09 740.883 681.064 739.011C684.092 733.206 687.164 727.426 690.24 721.647C693.294 715.843 696.338 710.035 699.376 704.223C701.27 700.606 703.176 696.995 705.093 693.39C705.952 691.762 706.812 690.134 707.698 688.456C708.843 686.303 708.843 686.303 710.011 684.107C711.902 680.672 711.902 680.672 711.644 676.901C710.775 677.529 709.906 678.158 709.011 678.805C704.902 681.775 700.793 684.744 696.684 687.713C695.176 688.803 693.669 689.893 692.116 691.016C684.155 696.764 676.178 702.486 668.164 708.16C656.614 716.341 645.344 724.813 634.198 733.538C628.832 737.603 623.38 741.324 617.742 744.997C616.165 742.857 614.587 740.717 613.01 738.577C611.979 737.179 610.947 735.78 609.885 734.338C607.581 731.212 605.277 728.085 602.973 724.958C596.961 716.798 590.942 708.643 584.903 700.503C583.771 698.975 582.639 697.447 581.473 695.872C579.325 692.972 577.174 690.074 575.02 687.179C568.088 677.811 561.524 668.246 555.142 658.496C564.528 657.812 570.451 659.907 578.847 664.018C580.969 665.043 583.091 666.067 585.277 667.123C586.877 667.921 588.476 668.718 590.124 669.539C590.124 672.576 590.124 675.612 590.124 678.741C590.732 678.134 591.34 677.527 591.966 676.901C595.648 675.75 595.648 675.75 599.33 675.06C602.371 678.1 601.172 681.978 601.172 686.103C601.779 686.71 602.387 687.318 603.013 687.943C603.62 685.514 604.228 683.085 604.854 680.582C606.031 681.189 607.208 681.796 608.421 682.422C611.792 684.396 611.792 684.396 614.06 684.263C617.926 682.133 617.926 682.133 621.425 678.741C621.636 677.318 621.847 675.894 622.065 674.428C623.648 667.983 626.422 665.879 631.436 661.602C633.107 660.167 634.778 658.731 636.5 657.253C642.753 652.087 649.04 646.977 655.408 641.954C660.156 638.199 664.846 634.383 669.526 630.544C679.09 622.706 688.68 614.901 698.285 607.114C704.606 601.989 710.916 596.853 717.203 591.687C734.029 577.889 751.211 564.668 768.721 551.75C765.365 537.187 761.1 523.39 755.833 509.42C753.811 503.946 751.825 498.461 749.849 492.971C749.102 490.944 749.102 490.944 748.34 488.875C746.021 482.416 744.785 477.714 744.785 470.77C754.682 466.867 764.327 463.859 774.705 461.568C777.436 460.946 780.166 460.323 782.897 459.699C784.229 459.396 785.562 459.094 786.934 458.782C795.625 456.778 804.266 454.563 812.91 452.366C817.082 461.013 820.611 469.541 823.166 478.808C823.641 480.473 824.115 482.139 824.604 483.855C825.562 487.277 826.467 490.715 827.323 494.164C828.821 499.225 830.183 503.214 833.163 507.579C837.785 509.767 842.117 510.788 847.111 511.849C851.894 513.19 854.043 514.476 857.401 518.076C861.541 525.508 860.815 530.375 859.63 538.407C859.09 545.247 858.737 551.067 863.214 556.595C869.835 562.211 877.32 566.271 885.023 570.211C889.28 572.461 893.116 575.182 897.03 577.977C899.042 579.039 901.055 580.102 903.129 581.197C907.171 579.7 907.171 579.7 910.494 577.516C909.739 576.779 908.984 576.041 908.206 575.281C900.154 566.788 897.283 559.611 895.764 548.069C892.726 548.069 889.688 548.069 886.558 548.069C885.95 549.891 885.343 551.713 884.717 553.591C880.464 552.983 876.21 552.376 871.828 551.75C871.828 549.928 871.828 548.106 871.828 546.229C870.613 546.229 869.398 546.229 868.146 546.229C867.064 537.034 866.675 531.561 872.519 524.028C880.33 518.743 888.566 518.761 897.605 520.463C906.824 523.902 912.312 528.507 916.593 537.372C917.079 538.612 917.566 539.853 918.067 541.132C919.69 545.04 919.69 545.04 925.223 548.069C925.401 547.01 925.579 545.951 925.762 544.86C928.178 531.611 932.125 519.149 936.501 506.429C937.186 504.405 937.872 502.382 938.579 500.297C940.254 495.359 941.94 490.425 943.635 485.494C946.044 492.718 944.355 495.892 942.031 503.101C941.661 504.269 941.29 505.437 940.909 506.64C939.723 510.371 938.516 514.094 937.306 517.817C936.107 521.548 934.912 525.279 933.723 529.013C932.643 532.398 931.55 535.778 930.456 539.159C928.731 544.068 928.731 544.068 928.906 548.069C933.766 548.677 938.627 549.284 943.635 549.91C944.144 548.302 944.652 546.693 945.176 545.036C947.173 539.285 949.474 533.977 952.122 528.5C953.057 526.559 953.992 524.619 954.956 522.619C955.929 520.617 956.902 518.615 957.904 516.552C958.849 514.592 959.794 512.632 960.767 510.613C964.627 502.625 968.485 494.646 972.566 486.767C973.569 484.829 974.571 482.89 975.604 480.893C976.517 479.161 977.429 477.429 978.369 475.645C982.935 464.998 980.888 454.225 978.618 443.164C979.226 444.378 979.833 445.593 980.459 446.845C982.282 445.023 984.105 443.201 985.983 441.323Z" fill="#0C242C"/>
<path d="M829.481 752.359C836.63 753.766 842.989 756.804 849.561 759.836C851.422 760.685 851.422 760.685 853.319 761.551C857.344 763.39 861.364 765.236 865.384 767.083C869.516 768.974 873.649 770.862 877.781 772.751C880.522 774.003 883.263 775.257 886.003 776.511C898.718 782.327 911.474 788.052 924.256 793.719C934.231 798.172 934.231 798.172 936.27 800.211C936.27 819.039 936.27 837.867 936.27 857.265C989.131 857.265 1041.99 857.265 1096.45 857.265C1097.06 866.983 1097.67 876.7 1098.3 886.712C1100.73 886.712 1103.16 886.712 1105.66 886.712C1105.66 896.43 1105.66 906.147 1105.66 916.159C985.357 916.159 865.053 916.159 741.103 916.159C743.633 908.573 745.487 903.332 749.345 896.72C750.262 895.13 751.178 893.54 752.122 891.902C753.119 890.189 754.115 888.477 755.142 886.712C764.956 869.627 774.356 852.364 783.566 834.95C794.62 814.07 806.054 793.457 817.918 773.024C821.851 766.18 825.67 759.272 829.481 752.359Z" fill="#D9D9D9"/>
<path d="M1017.28 301.449C1019.41 301.753 1021.54 302.057 1023.73 302.37C1030.17 303.29 1030.17 303.29 1035.7 306.971C1035.7 308.186 1035.7 309.4 1035.7 310.652C1037.4 310.652 1039.11 310.652 1040.87 310.652C1046.74 312.492 1046.74 312.492 1048.64 315.569C1051.19 322.346 1052.99 329.26 1054.11 336.418C1051.37 337.329 1051.37 337.329 1048.58 338.258C1048.58 347.976 1048.58 357.694 1048.58 367.706C1051.32 368.617 1051.32 368.617 1054.11 369.546C1054.26 372.228 1054.36 374.913 1054.45 377.598C1054.55 379.84 1054.55 379.84 1054.65 382.127C1054.47 383.442 1054.29 384.756 1054.11 386.11C1048.58 389.791 1048.58 389.791 1041.22 389.791C1040.99 414.579 1040.99 414.579 1052.27 435.802C1058.13 440.602 1064.2 444.773 1070.68 448.685C1070.07 449.9 1069.46 451.115 1068.84 452.366C1070.58 453.695 1072.33 455.023 1074.13 456.392C1079.36 460.819 1082.01 463.916 1083.57 470.771C1083.98 476.328 1083.8 481.771 1083.57 487.335C1083.52 488.82 1083.47 490.305 1083.42 491.835C1082.6 505.849 1078.69 517.525 1073.44 530.47C1072.62 532.553 1071.79 534.636 1070.94 536.782C1060.43 563.073 1048.81 588.806 1035.89 614.002C1032.94 619.783 1030.14 625.624 1027.39 631.501C1026.59 633.175 1025.79 634.849 1024.97 636.573C1023.41 639.844 1021.87 643.126 1020.37 646.422C1016.74 653.955 1014.76 657.766 1007.52 662.314C1005.88 662.876 1004.24 663.439 1002.55 664.018C1001.16 662.877 999.772 661.736 998.339 660.56C978.497 644.526 957.465 630.339 936.27 616.166C941.315 610.87 945.923 607.751 952.841 605.124C959.58 607.207 965.201 610.576 971.138 614.326C985.144 622.755 997.186 625.654 1013.6 623.528C1020.95 620.63 1026.66 617.32 1030.56 610.329C1031.04 609.218 1031.52 608.108 1032.01 606.964C1030.68 608.103 1029.35 609.242 1027.99 610.415C1018.69 617.438 1010.46 619.455 998.871 618.007C991.327 615.756 984.143 612.776 976.892 609.725C974.877 608.898 972.862 608.072 970.786 607.22C954.098 600.305 937.783 592.777 921.541 584.879C924.579 573.339 927.616 561.799 930.747 549.91C945.09 552.54 958.921 556.119 972.864 560.378C974.915 560.955 976.965 561.533 979.078 562.128C995.663 567.232 995.663 567.232 1000.27 575.252C1001.02 577.214 1001.78 579.176 1002.55 581.198C1002.15 580.023 1001.76 578.849 1001.35 577.639C1000.83 576.118 1000.32 574.598 999.792 573.031C999.279 571.515 998.766 569.999 998.238 568.437C997.03 564.634 997.03 564.634 997.03 562.793C995.815 564.008 994.599 565.223 993.347 566.474C986.056 564.045 978.765 561.615 971.253 559.112C974.168 541.912 977.928 524.949 981.888 507.965C982.627 504.777 983.355 501.586 984.073 498.393C985.122 493.728 986.203 489.072 987.292 484.416C987.604 482.997 987.917 481.578 988.24 480.117C990.259 471.678 992.773 466.209 998.871 459.728C998.871 462.158 998.871 464.587 998.871 467.09C1003.47 465.652 1003.47 465.652 1008.08 463.409C1008.99 460.676 1008.99 460.676 1009.92 457.888C1014.93 454.53 1014.93 454.53 1021.08 451.101C1024.13 449.382 1024.13 449.382 1027.24 447.629C1029.6 446.33 1029.6 446.33 1032.01 445.005C1027.8 447.468 1023.58 449.92 1019.35 452.366C1018.16 453.069 1016.96 453.771 1015.72 454.494C1006.65 459.728 1006.65 459.728 1002.55 459.728C1001.34 454.869 1000.12 450.011 998.871 445.005C997.656 446.219 996.441 447.434 995.189 448.685C993.366 448.685 991.543 448.685 989.665 448.685C989.057 440.183 988.45 431.68 987.824 422.919C984.786 422.312 981.748 421.704 978.618 421.079C972.823 417.119 969.084 412.501 965.729 406.355C964.163 397.925 964.421 389.819 964.809 381.279C964.851 379.068 964.894 376.857 964.938 374.579C965.178 364.733 965.793 355.319 967.571 345.62C966.393 345.051 965.216 344.481 964.003 343.895C960.206 341.939 960.206 341.939 958.365 340.099C957.824 333.248 958.092 331.306 962.047 325.375C962.009 323.553 961.971 321.731 961.932 319.854C962.047 314.333 962.047 314.333 964.464 310.882C967.571 308.811 967.571 308.811 973.094 308.811C973.322 307.369 973.55 305.926 973.785 304.44C976.777 299.609 976.777 299.609 980.538 298.114C993.167 295.295 1006.19 294.06 1017.28 301.449Z" fill="#D7E2E0"/>
<path d="M1159.63 775.257C1169.46 778.308 1176.89 784.633 1182.99 792.849C1183.67 795.287 1184.29 797.741 1184.83 800.211C1186.21 800.182 1187.58 800.153 1189 800.123C1195.21 800.009 1201.41 799.937 1207.62 799.866C1209.78 799.82 1211.95 799.773 1214.18 799.726C1217.27 799.699 1217.27 799.699 1220.43 799.672C1222.34 799.643 1224.25 799.614 1226.22 799.584C1227.75 799.791 1229.28 799.998 1230.86 800.211C1234.58 805.782 1235.07 807.38 1235.47 813.722C1235.64 816.139 1235.64 816.139 1235.8 818.605C1235.91 820.347 1236.01 822.09 1236.11 823.885C1236.23 825.695 1236.35 827.506 1236.47 829.371C1236.71 833.215 1236.95 837.059 1237.18 840.904C1237.53 846.706 1237.91 852.505 1238.28 858.304C1238.52 862.053 1238.76 865.802 1238.99 869.551C1239.1 871.253 1239.21 872.954 1239.32 874.708C1240.14 888.598 1240.07 902.169 1240.07 916.159C1286.25 916.159 1332.42 916.159 1380 916.159C1380 916.767 1380 917.374 1380 918C1168.56 918 957.113 918 739.262 918C739.262 917.392 739.262 916.785 739.262 916.159C860.173 916.159 981.085 916.159 1105.66 916.159C1105.66 906.442 1105.66 896.724 1105.66 886.712C1103.23 886.712 1100.8 886.712 1098.3 886.712C1095.53 881.185 1096.28 876.055 1096.34 869.918C1096.36 867.56 1096.37 865.202 1096.39 862.772C1096.42 860.046 1096.42 860.046 1096.45 857.265C1091.59 857.265 1086.73 857.265 1081.73 857.265C1081.67 850.478 1081.64 843.692 1081.61 836.905C1081.59 834.994 1081.58 833.083 1081.56 831.114C1081.53 821.237 1081.64 811.758 1083.57 802.051C1085.41 800.211 1085.41 800.211 1089.17 800.002C1090.78 800.012 1092.39 800.021 1094.05 800.031C1095.78 800.037 1097.52 800.043 1099.31 800.049C1101.14 800.065 1102.97 800.08 1104.86 800.096C1106.69 800.104 1108.53 800.113 1110.42 800.121C1114.97 800.143 1119.52 800.173 1124.07 800.211C1124.04 799.081 1124 797.95 1123.96 796.786C1123.93 795.299 1123.9 793.813 1123.87 792.281C1123.83 790.809 1123.8 789.337 1123.76 787.821C1124.07 783.647 1124.07 783.647 1127.29 778.011C1137.48 771.941 1148.23 773.082 1159.63 775.257Z" fill="#132931"/>
<path d="M781.609 590.4C792.033 599.046 801.591 608.34 811.068 618.007C810.461 619.222 809.853 620.437 809.227 621.688C801.329 613.793 793.43 605.897 785.292 597.762C796.81 626.547 825.337 646.599 849.734 664.018C841.835 656.123 833.936 648.227 825.798 640.093C826.406 638.878 827.013 637.663 827.639 636.412C832.886 641.443 838.091 646.515 843.29 651.595C845.529 653.741 845.529 653.741 847.813 655.93C849.932 658.012 849.932 658.012 852.093 660.136C853.404 661.408 854.715 662.681 856.066 663.991C858.94 667.699 858.94 667.699 858.94 675.061C852.439 673.961 846.955 672.239 840.974 669.482C839.367 668.749 837.76 668.016 836.105 667.261C834.45 666.494 832.796 665.728 831.092 664.939C827.789 663.422 824.485 661.907 821.181 660.395C818.998 659.386 818.998 659.386 816.771 658.357C812.689 656.488 812.689 656.488 807.386 654.816C806.152 656.854 806.152 656.854 804.893 658.933C777.198 704.644 777.198 704.644 763.773 726.249C752.148 744.957 740.673 763.753 729.254 782.586C726.664 786.85 724.061 791.106 721.454 795.359C713.166 808.933 705.584 822.646 698.755 837.021C689.67 834.288 681.619 830.481 673.244 826.122C671.878 825.418 670.511 824.714 669.103 823.989C666.218 822.501 663.335 821.01 660.455 819.515C656.112 817.261 651.763 815.019 647.414 812.778C632.512 805.089 617.679 797.3 603.013 789.169C604.854 785.488 604.854 785.488 610.378 783.648C612.836 783.501 615.301 783.449 617.764 783.468C619.855 783.477 619.855 783.477 621.989 783.486C624.159 783.509 624.159 783.509 626.373 783.533C627.841 783.541 629.309 783.549 630.821 783.558C634.44 783.579 638.059 783.612 641.678 783.648C642.286 786.077 642.893 788.506 643.519 791.009C644.431 788.276 644.431 788.276 645.36 785.488C652.044 785.488 658.727 785.488 665.614 785.488C666.905 783.552 668.196 781.616 669.526 779.622C670.252 778.533 670.979 777.444 671.727 776.322C672.14 775.095 672.553 773.869 672.978 772.605C672.229 771.369 671.48 770.132 670.707 768.859C668.401 759.943 673.197 753.818 677.423 746.005C678.309 744.302 679.195 742.6 680.108 740.846C682.996 735.312 685.927 729.803 688.859 724.293C691.826 718.634 694.781 712.968 697.735 707.302C699.682 703.568 701.632 699.836 703.587 696.106C711.841 680.323 719.626 664.373 727.057 648.186C733.418 634.538 740.407 620.56 752.38 610.99C756.458 607.675 759.795 604.791 763.197 600.753C768.907 596.115 774.356 596.405 781.609 595.922C781.609 594.1 781.609 592.278 781.609 590.4Z" fill="#0D252D"/>
<path d="M614.06 146.852C621.959 146.852 629.858 146.852 637.996 146.852C641.678 156.054 641.678 156.054 641.678 161.575C644.321 161.985 646.969 162.362 649.618 162.725C651.092 162.939 652.566 163.152 654.085 163.372C658.778 163.812 658.778 163.812 663.773 159.735C670.039 160.324 673.462 163.073 678.042 167.212C679.172 168.22 680.301 169.228 681.465 170.267C682.733 171.431 682.733 171.431 684.026 172.618C683.096 177.266 682.177 181.849 680.919 186.421C680.17 192.408 680.729 195.144 684.026 200.225C690.535 202.764 690.535 202.764 696.914 203.905C697.826 215.749 697.826 215.749 698.755 227.831C693.768 230.324 689.532 229.791 684.026 229.672C683.76 231.038 683.494 232.405 683.22 233.813C682.185 238.874 682.185 238.874 680.804 242.555C679.903 246.609 679.903 246.609 683.22 250.837C685.867 255.438 685.867 255.438 685.062 259.004C680.897 264.498 676.122 269.077 671.137 273.843C669.03 272.988 669.03 272.988 666.88 272.117C663.427 270.753 659.93 269.495 656.408 268.321C653.923 269.486 651.467 270.715 649.043 272.002C647.22 272.002 645.397 272.002 643.519 272.002C642.912 276.861 642.304 281.72 641.678 286.726C633.172 286.726 624.665 286.726 615.901 286.726C615.294 282.474 614.686 278.223 614.06 273.843C603.241 270.153 603.241 270.153 592.771 272.692C591.898 273.679 591.024 274.666 590.125 275.683C582.53 272.763 576.424 267.537 571.713 260.959C571.828 256.128 571.828 256.128 573.554 251.757C575.709 246.192 575.443 244.545 573.554 238.644C568.808 231.825 564.971 231.178 556.983 229.672C556.983 221.776 556.983 213.881 556.983 205.746C558.996 205.366 561.008 204.987 563.082 204.596C570.16 202.665 570.16 202.665 573.669 196.889C575.697 189.996 574.984 188.034 571.713 181.82C570.195 178.355 570.195 178.355 569.871 174.458C572.914 170.519 572.914 170.519 577.121 166.636C578.505 165.336 579.888 164.036 581.314 162.697C582.399 161.719 583.483 160.742 584.601 159.735C586.082 160.722 587.563 161.709 589.089 162.725C597.829 166.098 603.502 164.267 612.219 161.575C612.827 156.716 613.434 151.858 614.06 146.852Z" fill="#D9D9D9"/>
<path d="M1101.98 671.38C1134.18 671.38 1166.38 671.38 1199.56 671.38C1199.56 713.894 1199.56 756.409 1199.56 800.211C1194.7 800.211 1189.84 800.211 1184.83 800.211C1180.92 795.265 1180.92 795.265 1177.47 789.169C1165.11 777.355 1154.97 775.9 1138.44 775.437C1131.9 776.513 1129.82 778.357 1125.91 783.647C1124.65 787.955 1124.65 787.955 1124.53 792.389C1124.38 794.971 1124.23 797.552 1124.07 800.211C1116.78 800.211 1109.49 800.211 1101.98 800.211C1101.98 757.697 1101.98 715.183 1101.98 671.38Z" fill="#D9D9D9"/>
<path d="M1241.56 252.677C1243.74 252.744 1245.91 252.81 1248.16 252.879C1253.45 253.05 1258.72 253.29 1264 253.597C1257.82 258.713 1251.56 263.143 1244.69 267.293C1242.7 268.503 1240.7 269.712 1238.65 270.958C1236.47 272.265 1234.3 273.571 1232.13 274.878C1229.87 276.243 1227.61 277.608 1225.35 278.973C1204.86 291.348 1184.26 303.559 1163.63 315.72C1161.82 316.79 1161.82 316.79 1159.98 317.882C1156.71 319.812 1153.44 321.739 1150.17 323.666C1144.42 327.158 1138.85 330.806 1133.28 334.577C1140.24 341.956 1147.63 347.778 1155.95 353.557C1157.14 354.393 1158.32 355.229 1159.55 356.091C1162.45 358.13 1165.35 360.158 1168.26 362.184C1165.45 369.651 1161.96 376.649 1158.21 383.68C1157.59 384.859 1156.97 386.038 1156.32 387.253C1154.29 391.093 1152.24 394.928 1150.19 398.763C1149.49 400.08 1148.79 401.398 1148.07 402.755C1138.26 421.184 1128.2 439.44 1117.83 457.558C1109.98 471.317 1102.62 485.295 1095.36 499.367C1086.23 517.01 1076.66 534.4 1067 551.75C1064.82 545.226 1065.55 544.081 1068.13 537.947C1068.79 536.312 1069.46 534.678 1070.14 532.994C1071.55 529.602 1072.97 526.213 1074.4 522.828C1079.21 510.896 1081.22 500.166 1081.73 487.335C1081.81 485.762 1081.9 484.19 1081.99 482.569C1082.42 473.571 1081.51 467.334 1076.2 459.728C1070.59 455.371 1070.59 455.371 1065.15 452.366C1066.23 452.294 1067.31 452.222 1068.43 452.147C1074.75 449.643 1076.04 445.252 1079.1 439.303C1079.7 438.158 1080.3 437.014 1080.92 435.835C1082.86 432.116 1084.77 428.381 1086.67 424.644C1088.65 420.839 1090.63 417.039 1092.61 413.238C1093.91 410.735 1095.22 408.23 1096.51 405.724C1102.11 394.959 1108.03 384.402 1114.31 374.021C1116.35 370.644 1116.35 370.644 1118.55 365.865C1116.42 359.495 1115.11 358.757 1109.68 355.167C1107.57 353.737 1107.57 353.737 1105.42 352.277C1102.43 350.29 1099.44 348.305 1096.44 346.324C1094.34 344.894 1094.34 344.894 1092.19 343.434C1090.89 342.573 1089.59 341.712 1088.25 340.825C1087.31 339.978 1086.37 339.131 1085.41 338.258C1085.41 336.436 1085.41 334.614 1085.41 332.737C1089.1 330.059 1092.66 327.82 1096.61 325.583C1097.79 324.895 1098.97 324.206 1100.18 323.496C1102.74 322.008 1105.29 320.528 1107.85 319.057C1113.26 315.952 1118.64 312.805 1124.02 309.658C1126.77 308.051 1129.52 306.446 1132.27 304.843C1145.11 297.345 1157.8 289.606 1170.45 281.779C1172.3 280.635 1174.15 279.491 1176.06 278.313C1178.73 276.659 1178.73 276.659 1181.46 274.971C1183.22 273.901 1184.97 272.832 1186.78 271.73C1190.58 269.338 1194.31 266.832 1197.97 264.244C1212.9 254.059 1223.65 251.616 1241.56 252.677Z" fill="#D03642"/>
<path d="M916.017 857.265C975.562 857.265 1035.11 857.265 1096.45 857.265C1097.37 871.841 1097.37 871.841 1098.3 886.712C1100.73 886.712 1103.16 886.712 1105.66 886.712C1105.66 896.429 1105.66 906.147 1105.66 916.159C1046.12 916.159 986.572 916.159 925.223 916.159C925.831 910.086 926.438 904.012 927.064 897.755C926.454 892.336 926.454 892.336 925.223 888.552C922.793 888.552 920.362 888.552 917.858 888.552C918.119 885.292 918.389 882.034 918.664 878.775C918.813 876.96 918.963 875.145 919.117 873.275C919.699 868.307 919.699 868.307 921.541 862.786C919.718 862.786 917.895 862.786 916.017 862.786C916.017 860.964 916.017 859.142 916.017 857.265Z" fill="#FD5578"/>
<path d="M741.103 378.748C773.306 378.748 805.508 378.748 838.687 378.748C838.687 421.87 838.687 464.992 838.687 509.42C836.256 508.813 833.826 508.205 831.322 507.579C828.796 502.471 828.796 502.471 826.575 495.724C825.978 493.951 825.978 493.951 825.368 492.142C824.102 488.363 822.879 484.571 821.656 480.778C820.805 478.214 819.951 475.651 819.095 473.089C817.002 466.805 814.946 460.509 812.91 454.206C810.969 454.696 809.028 455.186 807.028 455.691C790.946 459.743 774.833 463.634 758.681 467.399C754.038 468.487 749.406 469.592 744.785 470.771C748.738 484.133 752.998 497.331 757.674 510.455C758.143 511.777 758.612 513.098 759.096 514.46C761.256 520.541 763.425 526.618 765.607 532.692C766.636 535.635 766.636 535.635 767.685 538.637C768.291 540.34 768.896 542.044 769.519 543.799C770.562 548.069 770.562 548.069 768.721 553.591C764.831 556.903 760.962 559.986 756.868 563.023C755.766 563.861 754.663 564.698 753.528 565.561C745.418 571.679 745.418 571.679 741.103 573.836C741.103 509.457 741.103 445.078 741.103 378.748Z" fill="#D9D9D9"/>
<path d="M1017.28 301.449C1019.41 301.753 1021.54 302.057 1023.73 302.37C1030.17 303.29 1030.17 303.29 1035.7 306.971C1035.7 308.186 1035.7 309.4 1035.7 310.652C1037.4 310.652 1039.11 310.652 1040.87 310.652C1046.74 312.492 1046.74 312.492 1048.64 315.569C1051.19 322.346 1052.99 329.26 1054.11 336.418C1052.28 337.025 1050.46 337.633 1048.58 338.258C1048.58 347.976 1048.58 357.694 1048.58 367.706C1050.41 368.313 1052.23 368.92 1054.11 369.546C1054.26 372.228 1054.36 374.913 1054.45 377.598C1054.55 379.84 1054.55 379.84 1054.65 382.127C1054.47 383.442 1054.29 384.756 1054.11 386.11C1048.58 389.791 1048.58 389.791 1041.22 389.791C1041.22 399.509 1041.22 409.226 1041.22 419.238C1036.58 421.63 1031.94 424.004 1027.29 426.37C1025.35 427.377 1025.35 427.377 1023.36 428.405C1017.15 431.555 1011.25 434.273 1004.5 436.04C998.673 437.026 998.673 437.026 996.455 441.439C996.037 442.615 995.619 443.792 995.189 445.005C993.366 445.916 993.366 445.916 991.506 446.845C990.883 444.24 990.271 441.632 989.665 439.023C989.323 437.571 988.982 436.119 988.63 434.623C987.824 430.281 987.824 430.281 987.824 422.919C986.449 422.737 985.073 422.556 983.656 422.368C976.288 420.482 973.087 416.909 968.34 411.138C963.212 401.744 964.336 391.699 964.809 381.279C964.873 377.962 964.873 377.962 964.938 374.579C965.179 364.733 965.793 355.319 967.571 345.62C966.394 345.051 965.216 344.481 964.003 343.895C960.206 341.939 960.206 341.939 958.365 340.099C957.824 333.248 958.092 331.306 962.047 325.375C962.009 323.553 961.971 321.731 961.932 319.854C962.047 314.333 962.047 314.333 964.464 310.882C967.571 308.811 967.571 308.811 973.094 308.811C973.322 307.369 973.55 305.926 973.785 304.44C976.777 299.609 976.777 299.609 980.538 298.114C993.167 295.295 1006.19 294.06 1017.28 301.449Z" fill="#AF5C5E"/>
<path d="M859.062 250.442C871.105 259.776 878.131 273.791 881.034 288.566C882.403 301.591 880.877 316.542 872.691 327.209C869.62 331.398 868.77 334.569 867.801 339.639C867.363 341.845 867.363 341.845 866.916 344.096C866.714 345.206 866.513 346.317 866.305 347.461C864.216 347.347 862.128 347.233 859.976 347.116C853.849 347.083 849.236 348.052 843.52 350.221C828.169 355.749 813.039 353.759 798.18 347.461C793.341 344.709 789.574 341.888 785.292 338.258C785.292 337.044 785.292 335.829 785.292 334.578C784.077 334.578 782.861 334.578 781.609 334.578C779.365 331.745 779.365 331.745 777.006 327.906C775.839 326.048 775.839 326.048 774.647 324.153C767.355 310.181 766.34 295.049 769.922 279.759C775.884 263.211 786.203 252.323 801.654 244.23C820.408 236.156 842.098 239.895 859.062 250.442Z" fill="#FEFDFE"/>
<path d="M829.481 752.359C836.615 753.97 836.615 753.97 838.687 756.04C838.862 760.969 838.918 765.85 838.896 770.779C838.896 772.323 838.896 773.867 838.897 775.458C838.895 780.586 838.881 785.715 838.867 790.843C838.863 794.389 838.86 797.935 838.859 801.482C838.852 810.834 838.833 820.186 838.813 829.539C838.791 840.75 838.783 851.961 838.772 863.172C838.754 880.221 838.719 897.27 838.687 914.319C806.484 914.319 774.281 914.319 741.103 914.319C757.699 881.141 757.699 881.141 766.88 865.317C778.009 845.906 788.572 826.223 798.997 806.429C805.031 794.999 811.226 783.733 817.968 772.702C820.619 768.36 823.122 763.95 825.568 759.491C826.323 758.12 827.078 756.749 827.855 755.336C828.392 754.354 828.928 753.371 829.481 752.359Z" fill="#D9D9D9"/>
<path d="M985.983 441.323C987.806 442.234 987.806 442.234 989.665 443.164C989.665 444.986 989.665 446.808 989.665 448.685C993.311 446.863 996.956 445.041 1000.71 443.164C1001.62 451.363 1001.62 451.363 1002.55 459.728C1004.64 458.511 1006.72 457.294 1008.87 456.04C1011.6 454.469 1014.32 452.9 1017.05 451.331C1018.43 450.525 1019.8 449.72 1021.22 448.89C1022.53 448.137 1023.85 447.383 1025.21 446.607C1027.03 445.552 1027.03 445.552 1028.89 444.475C1029.92 444.042 1030.95 443.61 1032.01 443.164C1033.84 444.075 1033.84 444.075 1035.7 445.004C1033.92 445.982 1032.14 446.959 1030.32 447.966C1027.97 449.279 1025.62 450.592 1023.27 451.906C1021.52 452.867 1021.52 452.867 1019.73 453.847C1013 457.631 1007.95 461.492 1002.55 467.09C1001.34 467.09 1000.12 467.09 998.871 467.09C997.96 465.267 997.96 465.267 997.03 463.409C993.724 468.366 992.596 470.874 991.298 476.448C990.941 477.954 990.585 479.459 990.218 481.011C989.846 482.632 989.473 484.254 989.09 485.925C988.695 487.603 988.3 489.28 987.894 491.008C986.632 496.376 985.386 501.748 984.142 507.119C982.894 512.464 981.643 517.808 980.39 523.151C979.611 526.475 978.836 529.8 978.066 533.125C976.027 541.869 973.803 550.503 971.253 559.112C978.544 560.934 985.836 562.756 993.348 564.633C995.171 560.989 996.993 557.345 998.871 553.591C1000.71 559.112 1000.71 559.112 999.447 563.023C998.663 570.233 1001.42 574.499 1004.53 580.903C1006.5 585.502 1006.88 589.121 1006.24 594.081C1002.55 588.559 1002.55 588.559 1001.37 584.281C999.237 576.664 997.532 571.571 990.577 567.366C984.724 565.212 978.907 563.529 972.864 561.988C970.856 561.415 968.849 560.842 966.78 560.252C962.82 559.127 958.852 558.033 954.875 556.971C946.779 554.79 938.763 552.362 930.747 549.91C930.557 551.618 930.367 553.326 930.171 555.086C928.836 564.624 926.039 573.799 923.382 583.038C940.771 592.312 958.536 600.419 976.777 607.884C978.731 608.703 980.686 609.523 982.699 610.367C994.862 615.255 1005.03 618.924 1018 614.75C1019.13 614.116 1020.26 613.483 1021.43 612.83C1023.23 611.83 1023.23 611.83 1025.08 610.81C1028.81 608.511 1032.33 606.086 1035.7 603.283C1032.01 611.561 1027.42 617.838 1020.05 623.183C1007.88 627.309 994.92 627.439 982.991 622.377C978.52 620.139 974.403 617.659 970.21 614.929C961.127 608.488 961.127 608.488 950.54 607.769C948.869 608.718 947.198 609.667 945.476 610.645C943.426 611.632 941.375 612.618 939.262 613.635C937.667 614.47 936.073 615.306 934.429 616.166C933.527 615.492 932.625 614.818 931.696 614.124C919.44 605.252 906.611 597.559 893.602 589.851C883.005 583.548 872.59 577.026 862.277 570.27C852.167 563.646 842.026 557.392 831.322 551.75C832.499 551.181 833.676 550.611 834.889 550.025C838.569 548.374 838.569 548.374 840.528 546.229C840.141 545.327 839.753 544.426 839.354 543.497C832.892 527.936 827.685 511.953 822.381 495.971C820.721 490.974 819.049 485.98 817.376 480.986C816.318 477.811 815.261 474.636 814.205 471.461C813.704 469.967 813.204 468.474 812.688 466.935C809.228 456.47 809.228 456.47 809.228 452.366C811.05 452.973 812.873 453.581 814.751 454.206C816.776 459.227 816.776 459.227 818.671 465.867C819.405 468.27 820.142 470.671 820.882 473.071C822.027 476.859 823.148 480.649 824.211 484.461C827.749 499.424 827.749 499.424 837.571 510.105C842.383 511.392 842.383 511.392 847.212 512.14C852.096 513.216 854.035 514.44 857.401 518.076C861.542 525.508 860.815 530.375 859.63 538.407C859.09 545.247 858.737 551.067 863.214 556.595C869.835 562.211 877.32 566.271 885.023 570.211C889.28 572.461 893.116 575.182 897.03 577.977C900.049 579.571 900.049 579.571 903.129 581.197C907.171 579.7 907.171 579.7 910.494 577.516C909.739 576.779 908.984 576.041 908.207 575.281C900.154 566.788 897.283 559.611 895.764 548.069C892.726 548.069 889.688 548.069 886.558 548.069C885.95 549.891 885.343 551.713 884.717 553.591C880.464 552.983 876.21 552.376 871.828 551.75C871.828 549.928 871.828 548.106 871.828 546.229C870.613 546.229 869.398 546.229 868.146 546.229C867.064 537.034 866.675 531.561 872.519 524.028C880.33 518.743 888.566 518.761 897.605 520.463C906.824 523.902 912.312 528.507 916.593 537.372C917.322 539.233 917.322 539.233 918.067 541.132C919.69 545.04 919.69 545.04 925.223 548.069C925.49 546.481 925.49 546.481 925.762 544.86C928.178 531.611 932.125 519.149 936.501 506.429C937.187 504.405 937.872 502.382 938.579 500.297C940.254 495.359 941.94 490.425 943.635 485.494C946.044 492.718 944.355 495.892 942.031 503.101C941.661 504.269 941.291 505.437 940.909 506.64C939.723 510.371 938.516 514.094 937.306 517.817C936.107 521.548 934.912 525.279 933.723 529.013C932.643 532.398 931.55 535.778 930.456 539.159C928.731 544.068 928.731 544.068 928.906 548.069C933.766 548.677 938.627 549.284 943.635 549.91C944.144 548.302 944.652 546.693 945.176 545.036C947.173 539.285 949.474 533.977 952.122 528.5C953.525 525.589 953.525 525.589 954.956 522.619C955.929 520.617 956.902 518.615 957.905 516.552C959.322 513.612 959.322 513.612 960.767 510.613C964.627 502.625 968.485 494.646 972.566 486.767C973.569 484.829 974.572 482.89 975.605 480.893C976.517 479.161 977.429 477.429 978.369 475.645C982.935 464.998 980.888 454.225 978.618 443.164C979.529 444.986 979.529 444.986 980.459 446.845C982.282 445.023 984.105 443.201 985.983 441.323Z" fill="#9C6063"/>
<path d="M1159.63 775.257C1169.46 778.308 1176.89 784.633 1182.99 792.849C1183.67 795.287 1184.29 797.741 1184.83 800.211C1186.21 800.182 1187.58 800.153 1189 800.123C1195.21 800.009 1201.41 799.937 1207.62 799.866C1209.78 799.82 1211.95 799.773 1214.18 799.726C1217.27 799.699 1217.27 799.699 1220.43 799.672C1222.34 799.643 1224.25 799.614 1226.22 799.584C1227.75 799.791 1229.28 799.998 1230.86 800.211C1234.93 806.31 1234.96 808.207 1234.78 815.28C1234.74 816.938 1234.71 818.596 1234.67 820.305C1234.63 821.57 1234.59 822.834 1234.55 824.137C1233.33 823.53 1232.11 822.922 1230.86 822.296C1227.22 828.977 1223.57 835.658 1219.82 842.541C1218.6 842.541 1217.39 842.541 1216.13 842.541C1215.69 843.637 1215.24 844.734 1214.78 845.863C1208.74 856.33 1195.82 861.143 1184.83 864.627C1183.62 866.449 1182.4 868.271 1181.15 870.148C1176.32 870.493 1176.32 870.493 1171.94 870.148C1171.03 866.504 1171.03 866.504 1170.1 862.786C1168.5 862.613 1166.9 862.44 1165.26 862.261C1158.4 860.807 1154.09 858.429 1148.24 854.619C1146.46 853.483 1144.68 852.347 1142.84 851.176C1141.51 850.148 1140.18 849.121 1138.8 848.063C1138.8 846.848 1138.8 845.633 1138.8 844.382C1137.59 844.382 1136.37 844.382 1135.12 844.382C1135.12 843.167 1135.12 841.952 1135.12 840.701C1133.91 840.701 1132.69 840.701 1131.44 840.701C1128.25 836.969 1125.28 833.236 1122.35 829.313C1121.53 828.249 1120.72 827.185 1119.88 826.089C1115.35 820.117 1111.22 814.093 1107.5 807.573C1106.29 808.18 1105.07 808.788 1103.82 809.413C1103.82 806.377 1103.82 803.34 1103.82 800.211C1110.5 800.211 1117.19 800.211 1124.07 800.211C1123.88 797.668 1123.69 795.124 1123.5 792.504C1123.57 786.084 1124 783.772 1127.3 778.011C1137.48 771.941 1148.23 773.082 1159.63 775.257Z" fill="#0D262E"/>
<path d="M807.387 454.207C811.002 464.646 814.605 475.089 818.197 485.536C819.419 489.084 820.644 492.631 821.872 496.177C823.645 501.295 825.406 506.418 827.165 511.541C827.71 513.106 828.255 514.671 828.816 516.284C832.197 526.179 834.744 535.984 836.846 546.229C825.319 548.534 825.319 548.534 818.894 546.345C802.861 541.105 785.445 544.313 770.562 551.751C757.217 515.928 757.217 515.928 751.863 499.456C750.823 496.272 749.749 493.099 748.641 489.938C748.128 488.471 747.615 487.005 747.087 485.495C746.641 484.242 746.195 482.989 745.735 481.699C744.786 478.133 744.786 478.133 744.786 470.771C754.903 466.765 764.775 463.774 775.396 461.454C782.71 459.834 789.849 458.213 796.958 455.825C801.863 454.207 801.863 454.207 807.387 454.207Z" fill="#275A62"/>
<path d="M1032.01 767.083C1032.62 767.083 1033.23 767.083 1033.85 767.083C1033.85 796.843 1033.85 826.603 1033.85 857.265C1001.65 857.265 969.449 857.265 936.271 857.265C936.271 838.437 936.271 819.609 936.271 800.211C944.777 802.033 953.283 803.855 962.047 805.732C968.177 806.58 974.198 807.348 980.344 807.918C981.789 808.069 983.233 808.219 984.721 808.374C993.247 809.222 1001.26 809.413 1009.92 809.413C1020.86 788.46 1020.86 788.46 1032.01 767.083Z" fill="#D9D9D9"/>
<path d="M916.017 857.265C975.562 857.265 1035.11 857.265 1096.45 857.265C1097.37 871.841 1097.37 871.841 1098.3 886.712C1008.98 887.623 1008.98 887.623 917.858 888.552C919.699 868.307 919.699 868.307 921.541 862.786C919.718 862.786 917.895 862.786 916.017 862.786C916.017 860.964 916.017 859.142 916.017 857.265Z" fill="#2A5C64"/>
<path d="M753.991 739.477C754.903 741.299 754.903 741.299 755.833 743.157C753.776 747.686 753.776 747.686 750.539 753.445C749.668 755.011 749.668 755.011 748.779 756.608C746.848 760.069 744.896 763.518 742.944 766.968C741.587 769.393 740.231 771.818 738.877 774.244C736.083 779.244 733.281 784.24 730.473 789.233C725.588 797.92 720.749 806.632 715.912 815.346C713.674 819.377 711.434 823.407 709.192 827.436C703.056 838.46 696.946 849.497 690.866 860.551C690.206 861.749 689.546 862.948 688.867 864.183C685.686 869.962 682.508 875.744 679.336 881.529C678.185 883.622 677.034 885.714 675.848 887.87C674.848 889.693 673.847 891.517 672.816 893.395C671.655 895.441 670.493 897.488 669.296 899.596C668.708 901.167 668.121 902.739 667.515 904.358C664.996 910.096 662.876 913.737 658.249 918C647.959 920.633 637.916 920.147 627.366 919.797C624.327 919.763 621.288 919.737 618.249 919.719C610.273 919.648 602.304 919.468 594.331 919.264C586.186 919.075 578.039 918.991 569.893 918.899C553.926 918.702 537.964 918.388 522 918C522 917.393 522 916.785 522 916.16C551.772 916.16 581.544 916.16 612.219 916.16C613.434 913.123 614.649 910.086 615.901 906.957C617.596 903.598 619.341 900.264 621.123 896.95C622.162 895.016 623.201 893.082 624.272 891.09C625.383 889.038 626.494 886.986 627.639 884.872C628.776 882.766 629.913 880.659 631.085 878.489C641.657 858.96 652.622 839.66 663.773 820.456C671.585 823.413 679 827.039 686.442 830.809C687.63 831.407 688.818 832.005 690.042 832.621C692.948 834.084 695.852 835.552 698.755 837.02C699.237 835.447 699.719 833.875 700.215 832.254C709.372 806.395 726.538 782.767 741.103 759.722C741.873 758.502 742.643 757.282 743.437 756.025C746.934 750.495 750.448 744.977 753.991 739.477Z" fill="#CC3742"/>
<path d="M1017.28 301.449C1019.41 301.753 1021.54 302.057 1023.73 302.37C1030.17 303.29 1030.17 303.29 1035.7 306.971C1035.7 308.186 1035.7 309.4 1035.7 310.652C1037.4 310.652 1039.11 310.652 1040.87 310.652C1046.74 312.492 1046.74 312.492 1048.64 315.569C1051.19 322.346 1052.99 329.26 1054.11 336.418C1052.28 337.025 1050.46 337.633 1048.58 338.258C1048.67 340.054 1048.75 341.85 1048.84 343.701C1048.94 347.213 1048.94 347.213 1049.04 350.797C1049.13 353.124 1049.21 355.451 1049.3 357.849C1048.58 364.025 1048.58 364.025 1044.96 367.188C1043.11 368.355 1043.11 368.355 1041.22 369.546C1039.72 376.18 1039.72 376.18 1039.38 382.429C1033.47 378.187 1032.7 373.237 1031.5 366.315C1031.29 364.99 1031.08 363.665 1030.86 362.299C1029.05 351.12 1029.05 351.12 1026.49 340.099C1022.84 340.099 1019.2 340.099 1015.44 340.099C1014.83 338.277 1014.23 336.455 1013.6 334.578C1012.35 334.388 1011.09 334.198 1009.8 334.002C1003.23 332.464 997.544 330.233 991.506 327.216C990.899 325.394 990.291 323.572 989.665 321.694C985.315 320.944 985.315 320.944 980.459 321.694C976.994 325.584 976.994 325.584 974.475 330.667C973.094 333.165 973.094 333.165 971.685 335.713C970.296 338.393 968.921 341.08 967.571 343.78C960.436 342.169 960.436 342.169 958.365 340.099C957.824 333.248 958.092 331.306 962.047 325.375C962.009 323.553 961.971 321.731 961.932 319.854C962.047 314.333 962.047 314.333 964.464 310.882C967.571 308.811 967.571 308.811 973.094 308.811C973.322 307.369 973.55 305.926 973.785 304.44C976.777 299.609 976.777 299.609 980.538 298.114C993.167 295.295 1006.19 294.06 1017.28 301.449Z" fill="#102830"/>
<path d="M838.687 733.955C851.621 737.929 863.395 743.15 875.511 749.139C894.249 758.272 913.128 767.022 932.128 775.595C955.124 785.98 977.993 796.593 1000.71 807.573C1000.71 808.18 1000.71 808.788 1000.71 809.413C964.746 811.156 935.725 802.658 903.704 786.868C900.478 785.313 897.25 783.763 894.02 782.217C889.278 779.946 884.537 777.672 879.807 775.378C868.627 769.967 857.338 764.875 845.901 760.031C840.65 757.793 836.095 755.54 831.322 752.36C833.369 745.927 835.586 739.946 838.687 733.955Z" fill="#D23742"/>
<path d="M1079.88 494.696C1080.49 494.696 1081.1 494.696 1081.73 494.696C1083.04 507.702 1078.34 518.075 1073.56 530.01C1072.72 532.126 1071.89 534.242 1071.03 536.422C1060.52 562.853 1048.87 588.692 1035.89 614.002C1032.94 619.782 1030.14 625.624 1027.39 631.501C1026.59 633.174 1025.79 634.848 1024.97 636.573C1023.41 639.843 1021.87 643.126 1020.37 646.422C1016.74 653.955 1014.77 657.766 1007.52 662.314C1005.88 662.876 1004.24 663.438 1002.55 664.018C1001.16 662.876 999.772 661.735 998.339 660.56C978.497 644.526 957.465 630.339 936.271 616.166C941.316 610.869 945.923 607.751 952.841 605.123C959.58 607.207 965.201 610.575 971.138 614.326C985.143 622.754 997.188 625.657 1013.6 623.528C1022.57 619.937 1028.46 614.916 1033.85 606.964C1035.36 603.407 1036.76 599.801 1038.07 596.165C1043.05 582.83 1048.86 569.973 1054.8 557.042C1064.12 536.582 1072.59 515.975 1079.88 494.696Z" fill="#D1DCDB"/>
<path d="M978.618 445.005C982.987 453.466 984.134 461.503 982.301 470.771C979.395 477.729 975.983 484.295 972.44 490.944C966.747 501.628 961.552 512.549 956.328 523.467C954.689 526.891 953.046 530.313 951.401 533.734C948.81 539.125 946.222 544.517 943.635 549.911C938.167 549.911 932.699 549.911 927.064 549.911C929.729 537.035 933.268 524.611 937.191 512.066C941.735 497.629 941.735 497.629 945.563 482.993C949.427 468.238 956.617 455.372 969.412 446.845C974.936 445.005 974.936 445.005 978.618 445.005Z" fill="#D7E1DF"/>
<path d="M985.983 441.323C987.198 441.931 988.413 442.538 989.665 443.164C989.665 444.986 989.665 446.808 989.665 448.685C993.311 446.863 996.956 445.041 1000.71 443.164C1001.32 448.63 1001.93 454.096 1002.55 459.728C1004.64 458.511 1006.72 457.294 1008.87 456.04C1011.6 454.469 1014.32 452.9 1017.05 451.331C1018.43 450.525 1019.8 449.72 1021.22 448.89C1022.53 448.137 1023.85 447.383 1025.21 446.607C1026.42 445.904 1027.64 445.2 1028.89 444.475C1029.92 444.042 1030.95 443.61 1032.01 443.164C1033.23 443.771 1034.44 444.378 1035.7 445.004C1033.92 445.982 1032.14 446.959 1030.32 447.966C1027.97 449.279 1025.62 450.592 1023.27 451.906C1022.1 452.546 1020.93 453.187 1019.73 453.847C1013 457.631 1007.95 461.492 1002.55 467.09C1001.34 467.09 1000.12 467.09 998.871 467.09C998.264 465.875 997.656 464.66 997.03 463.409C993.724 468.366 992.596 470.874 991.298 476.448C990.941 477.954 990.585 479.459 990.218 481.011C989.659 483.443 989.659 483.443 989.09 485.925C988.695 487.603 988.3 489.28 987.894 491.008C986.632 496.376 985.386 501.748 984.142 507.119C982.894 512.464 981.643 517.808 980.39 523.151C979.611 526.475 978.836 529.8 978.066 533.125C977.709 534.654 977.353 536.183 976.985 537.758C976.678 539.086 976.37 540.414 976.053 541.782C974.592 547.596 972.901 553.349 971.253 559.112C962.139 556.683 953.025 554.253 943.635 551.75C945.282 543.519 947.337 538.06 950.971 530.621C951.519 529.493 952.067 528.365 952.631 527.203C954.379 523.609 956.142 520.023 957.905 516.437C959.061 514.063 960.217 511.69 961.371 509.316C970.214 491.17 970.214 491.17 974.117 483.676C974.952 482.072 975.787 480.468 976.647 478.815C977.373 477.454 978.099 476.094 978.847 474.692C982.958 464.692 980.728 453.447 978.618 443.164C979.226 444.378 979.833 445.593 980.459 446.845C982.282 445.023 984.105 443.201 985.983 441.323Z" fill="#FD5377"/>
<path d="M809.228 452.366C811.05 452.974 812.873 453.581 814.751 454.207C816.776 459.227 816.776 459.227 818.671 465.868C819.405 468.27 820.142 470.671 820.882 473.071C822.027 476.859 823.148 480.649 824.211 484.461C827.749 499.424 827.749 499.424 837.571 510.105C842.383 511.393 842.383 511.393 847.212 512.14C852.096 513.216 854.035 514.441 857.401 518.076C861.542 525.51 860.813 530.375 859.63 538.407C859.109 545.198 858.752 551.048 863.155 556.565C869.706 562.174 877.168 566.235 884.817 570.157C889.783 572.706 894.548 575.561 899.331 578.437C901.521 579.661 901.521 579.661 903.755 580.91C905.268 581.963 905.268 581.963 906.811 583.038C906.811 584.253 906.811 585.468 906.811 586.719C908.147 587.208 909.484 587.696 910.86 588.2C916.02 590.401 920.261 592.983 924.878 596.151C926.333 597.143 927.788 598.135 929.287 599.156C930.376 599.911 931.466 600.665 932.588 601.443C931.677 604.176 931.677 604.176 930.747 606.964C927.325 608.434 927.325 608.434 923.382 608.804C918.656 606.227 914.437 603.577 910.033 600.522C907.245 598.654 904.455 596.79 901.662 594.929C899.381 593.402 899.381 593.402 897.055 591.843C887.83 585.752 878.444 579.918 869.067 574.066C867.222 572.907 865.377 571.748 863.476 570.554C852.925 563.958 842.278 557.653 831.322 551.75C832.499 551.181 833.676 550.612 834.889 550.025C838.569 548.374 838.569 548.374 840.528 546.229C840.141 545.328 839.753 544.426 839.354 543.497C832.892 527.937 827.685 511.953 822.381 495.972C820.721 490.974 819.049 485.98 817.376 480.987C816.318 477.812 815.261 474.636 814.205 471.461C813.704 469.968 813.204 468.474 812.688 466.936C809.228 456.47 809.228 456.47 809.228 452.366Z" fill="#1F4B53"/>
<path d="M647.202 198.385C653.002 205.182 653.697 211.43 653.366 220.075C652.338 226.616 649.759 230.334 645.361 235.194C637.308 240.56 631.024 241.762 621.425 240.715C613.864 237.376 609.35 232.893 604.854 225.991C602.139 217.074 603.114 210.628 606.695 202.066C610.859 197.318 615.515 193.869 621.31 191.253C631.156 190.656 639.377 192.302 647.202 198.385Z" fill="#D9D9D9"/>
<path d="M1083.57 334.577C1110.94 331.767 1130.82 331.756 1152.8 349.507C1158.19 354.121 1163.27 358.983 1168.26 364.024C1121.19 368.225 1121.19 368.225 1103.13 353.442C1098.86 349.782 1094.85 345.973 1090.93 341.939C1088.48 339.484 1086.02 337.029 1083.57 334.577Z" fill="#BF343F"/>
<path d="M914.176 577.517C915.999 578.124 917.822 578.731 919.7 579.357C919.7 581.786 919.7 584.216 919.7 586.719C924.646 588.41 929.587 590.074 934.621 591.489C947.541 595.134 959.725 600.088 972.059 605.353C975.968 607.008 979.878 608.662 983.789 610.314C985.494 611.04 987.2 611.767 988.956 612.515C998.528 616.462 1007.65 618.337 1017.58 614.714C1024.1 611.523 1030.1 607.941 1035.7 603.283C1032.01 611.561 1027.42 617.838 1020.05 623.183C1007.88 627.309 994.92 627.439 982.991 622.378C978.52 620.139 974.403 617.66 970.21 614.929C961.127 608.488 961.127 608.488 950.54 607.769C948.869 608.718 947.198 609.667 945.476 610.645C943.426 611.632 941.375 612.619 939.262 613.635C937.667 614.471 936.072 615.306 934.429 616.166C931.391 613.129 928.353 610.093 925.223 606.964C927.046 606.356 928.869 605.749 930.747 605.123C930.747 603.909 930.747 602.694 930.747 601.442C927.111 598.75 923.506 596.276 919.7 593.851C918.646 593.165 917.592 592.479 916.506 591.773C913.896 590.077 911.275 588.396 908.652 586.719C912.105 579.587 912.105 579.587 914.176 577.517Z" fill="#D94E6D"/>
<path d="M927.064 892.233C945.9 892.233 964.735 892.233 984.142 892.233C984.142 898.914 984.142 905.595 984.142 912.478C964.699 912.478 945.255 912.478 925.223 912.478C925.831 908.227 926.438 903.975 927.064 899.595C927.064 897.166 927.064 894.736 927.064 892.233Z" fill="#C9CACD"/>
<path d="M921.541 862.786C939.769 862.786 957.997 862.786 976.777 862.786C976.777 869.467 976.777 876.148 976.777 883.031C957.334 883.031 937.891 883.031 917.858 883.031C919.7 870.148 919.7 870.148 921.541 862.786Z" fill="#BBC5C8"/>
<path d="M1267.69 113.724C1273.1 116.369 1273.1 116.369 1276.89 121.085C1279.23 127.966 1280.23 134.348 1277.16 141.115C1273.38 146.169 1269.95 148.552 1264 150.533C1255.45 150.533 1251.22 148.695 1245.02 142.826C1241.02 136.175 1240.82 132.411 1241.91 124.766C1248.84 114.138 1255.21 112.099 1267.69 113.724Z" fill="#D9D9D9"/>
<path d="M783.156 186.335C787.133 187.341 787.133 187.341 792.771 192.058C798.812 202.771 796.417 212.4 794.498 224.15C793.494 223.837 792.49 223.524 791.455 223.201C786.408 222.16 782.029 222.463 776.891 222.77C767.442 222.808 767.442 222.808 762.852 218.744C760.823 211.101 759.897 204.374 761.356 196.544C767.036 187.569 772.982 185.724 783.156 186.335Z" fill="#D9D9D9"/>
<path d="M630.631 422.919C635.924 426.715 635.924 426.715 639.837 432.121C641.187 440.62 641.155 446.089 636.27 453.286C629.712 458.637 626.315 459.559 618.037 458.951C612.697 457.523 609.454 454.808 606.357 450.245C603.43 443.623 603.708 439.34 604.854 432.121C612.498 422.415 618.646 419.564 630.631 422.919Z" fill="#D9D9D9"/>
<path d="M923.756 403C924.668 403.304 925.579 403.607 926.518 403.92C931.499 405.16 931.499 405.16 938.141 404.035C943.355 403.967 945.466 404.572 949.799 407.594C954.66 412.51 958.561 416.512 958.976 423.626C957.754 429.454 955.816 433.353 952.065 437.969C945.643 440.672 939.737 440.965 932.962 439.809C927.554 437.163 927.554 437.163 923.756 432.447C921.019 422.536 921.846 412.97 923.756 403Z" fill="#E8EEEB"/>
<path d="M860.781 525.984C863.819 526.592 866.857 527.199 869.987 527.825C869.38 533.898 868.772 539.972 868.146 546.229C869.361 546.229 870.576 546.229 871.828 546.229C871.828 548.051 871.828 549.873 871.828 551.751C876.082 551.751 880.335 551.751 884.717 551.751C885.324 550.536 885.932 549.321 886.558 548.07C891.276 546.919 891.276 546.919 895.764 546.229C897.761 551.077 899.543 555.779 900.942 560.838C903.666 567.858 907.299 571.953 912.335 577.517C910.512 579.339 908.689 581.161 906.811 583.038C897.955 579.78 890.59 575.185 882.768 569.961C877.454 566.403 877.454 566.403 871.879 563.735C866.377 560.742 862.77 558.575 858.94 553.591C857.929 544.012 859.009 535.41 860.781 525.984Z" fill="#D8E1DF"/>
<path d="M617.764 783.468C619.855 783.477 619.855 783.477 621.989 783.486C624.159 783.509 624.159 783.509 626.373 783.533C627.841 783.541 629.309 783.549 630.821 783.558C634.44 783.579 638.059 783.612 641.678 783.648C641.678 784.255 641.678 784.862 641.678 785.488C633.172 786.095 624.665 786.703 615.901 787.329C644.566 801.246 673.279 814.956 702.438 827.818C701.222 830.855 700.007 833.892 698.755 837.021C689.67 834.288 681.619 830.481 673.244 826.122C671.878 825.418 670.511 824.714 669.103 823.989C666.218 822.501 663.335 821.01 660.455 819.515C656.112 817.261 651.763 815.019 647.414 812.778C632.512 805.089 617.679 797.3 603.013 789.169C606.141 782.915 611.466 783.421 617.764 783.468Z" fill="#2B575F"/>
<path d="M555.142 658.497C558.787 658.497 562.433 658.497 566.189 658.497C566.633 659.494 567.076 660.49 567.534 661.517C570.461 666.955 574.024 671.559 577.811 676.441C578.607 677.468 579.403 678.495 580.223 679.553C586.899 688.118 593.735 696.551 600.596 704.968C602.124 706.844 602.124 706.844 603.682 708.757C607.984 714.038 612.289 719.318 616.606 724.588C617.779 726.047 618.951 727.506 620.159 729.009C621.139 730.217 622.119 731.424 623.129 732.669C625.107 735.796 625.107 735.796 625.107 741.317C622.677 742.532 620.246 743.747 617.742 744.998C616.165 742.858 614.587 740.718 613.01 738.578C611.979 737.179 610.947 735.78 609.885 734.339C607.581 731.213 605.277 728.086 602.973 724.959C596.961 716.799 590.942 708.644 584.903 700.504C583.771 698.976 582.639 697.447 581.473 695.873C579.325 692.973 577.174 690.075 575.02 687.18C568.088 677.812 561.524 668.247 555.142 658.497Z" fill="#2A5A62"/>
<path d="M1037.54 894.074C1055.76 894.074 1073.99 894.074 1092.77 894.074C1092.77 898.933 1092.77 903.792 1092.77 908.798C1074.54 908.798 1056.32 908.798 1037.54 908.798C1037.54 903.939 1037.54 899.08 1037.54 894.074Z" fill="#F8FAFA"/>
<path d="M1030.17 864.627C1047.79 864.627 1065.41 864.627 1083.57 864.627C1083.57 869.486 1083.57 874.345 1083.57 879.351C1065.95 879.351 1048.33 879.351 1030.17 879.351C1030.17 874.492 1030.17 869.633 1030.17 864.627Z" fill="#FAFBFB"/>
<path d="M846.051 277.523C848.482 278.738 850.912 279.953 853.416 281.204C853.416 289.339 848.179 293.009 842.829 298.574C841.837 299.628 840.845 300.683 839.823 301.769C837.886 303.822 835.933 305.86 833.965 307.883C831.716 310.238 829.591 312.71 827.496 315.202C823.957 318.013 823.957 318.013 819.447 318.021C813.768 315.786 810.329 312.868 805.89 308.696C804.435 307.346 802.98 305.996 801.481 304.605C800.392 303.564 799.303 302.522 798.18 301.449C801.218 298.413 804.256 295.376 807.386 292.247C810.083 294.584 812.78 296.92 815.477 299.257C818.631 301.833 818.631 301.833 823.957 303.29C824.576 301.767 824.576 301.767 825.208 300.213C828.383 294.617 832.473 290.748 837.076 286.266C838.751 284.624 840.427 282.982 842.153 281.291C843.44 280.047 844.726 278.804 846.051 277.523Z" fill="#FF597C"/>
<path d="M1227.18 406.355C1236.21 409.29 1243.04 414.529 1250.54 420.159C1251.79 421.077 1253.03 421.995 1254.31 422.941C1259.04 426.45 1263.52 429.793 1267.69 433.962C1251.89 433.962 1236.09 433.962 1219.82 433.962C1218.6 431.533 1217.38 429.103 1216.13 426.6C1218.19 421.453 1218.19 421.453 1221.43 416.018C1222.48 414.205 1223.54 412.393 1224.63 410.525C1225.47 409.149 1226.31 407.773 1227.18 406.355Z" fill="#D13440"/>
<path d="M831.322 507.58C851.352 511.577 851.352 511.577 857.444 517.703C863.417 529.232 861.671 541.218 858.94 553.591C849.737 549.349 843.81 545.364 839.952 535.762C838.856 532.523 837.822 529.262 836.845 525.985C836.297 524.241 835.749 522.497 835.184 520.7C833.841 516.34 832.556 511.972 831.322 507.58Z" fill="#B66163"/>
<path d="M1153.53 779.966C1164.43 783.384 1170.93 789.184 1177.47 798.371C1177.47 798.978 1177.47 799.586 1177.47 800.211C1162.89 800.211 1148.3 800.211 1133.28 800.211C1132.67 794.745 1132.06 789.279 1131.44 783.647C1138.95 778.641 1144.71 778.823 1153.53 779.966Z" fill="#EFF3F2"/>
<path d="M748.468 608.805C748.468 616.197 744.939 620.589 741.103 626.634C734.816 636.729 729.367 646.937 724.302 657.692C719.166 668.405 714.489 676.019 704.279 682.423C702.456 682.423 700.633 682.423 698.755 682.423C701.59 671.792 707.016 663.39 712.91 654.241C713.904 652.684 714.899 651.128 715.924 649.524C725.011 635.43 734.377 622.17 746.627 610.645C747.234 610.038 747.842 609.43 748.468 608.805Z" fill="#08161C"/>
<path d="M956.523 603.283C967.701 605.857 978.52 608.621 989.205 612.831C999.136 616.519 1007.18 618.581 1017.52 614.693C1024.09 611.562 1030.09 607.952 1035.7 603.283C1032.01 611.562 1027.42 617.838 1020.04 623.183C1007.88 627.31 994.92 627.44 982.991 622.378C980.273 620.982 977.589 619.52 974.935 618.007C973.248 617.077 971.56 616.147 969.822 615.189C960.424 609.813 960.424 609.813 956.523 606.964C956.523 605.749 956.523 604.535 956.523 603.283Z" fill="#758A8C"/>
<path d="M985.983 441.323C987.198 441.931 988.413 442.538 989.665 443.164C989.665 444.986 989.665 446.808 989.665 448.685C993.311 446.863 996.956 445.041 1000.71 443.164C1001.32 448.63 1001.93 454.096 1002.55 459.728C1004.64 458.511 1006.72 457.294 1008.87 456.04C1011.6 454.469 1014.32 452.9 1017.05 451.331C1018.43 450.525 1019.8 449.72 1021.22 448.89C1022.53 448.137 1023.85 447.383 1025.21 446.607C1026.42 445.904 1027.64 445.2 1028.89 444.475C1029.92 444.042 1030.95 443.61 1032.01 443.164C1033.23 443.771 1034.44 444.378 1035.7 445.004C1033.92 445.982 1032.14 446.959 1030.32 447.966C1027.97 449.279 1025.62 450.592 1023.27 451.906C1022.1 452.546 1020.93 453.187 1019.73 453.847C1013 457.631 1007.95 461.492 1002.55 467.09C1001.34 467.09 1000.12 467.09 998.871 467.09C998.264 465.875 997.656 464.66 997.03 463.409C995.207 466.142 995.207 466.142 993.348 468.93C987.879 468.019 987.879 468.019 982.3 467.09C981.627 464.488 980.98 461.879 980.344 459.268C979.981 457.816 979.618 456.364 979.244 454.868C978.59 450.334 979.044 447.478 980.459 443.164C980.459 444.378 980.459 445.593 980.459 446.845C982.282 445.023 984.105 443.201 985.983 441.323Z" fill="#A7576E"/>
<path d="M783.451 595.921C792.788 603.739 801.568 611.899 810.148 620.537C811.365 621.757 812.581 622.976 813.835 624.233C820.819 631.276 827.567 638.427 833.969 646.008C839.504 652.33 845.566 658.151 851.575 664.018C843.469 664.018 839.507 658.922 833.739 653.78C832.001 652.256 832.001 652.256 830.228 650.701C827.93 648.685 825.637 646.663 823.348 644.637C819.687 641.415 815.95 638.287 812.219 635.145C801.179 625.436 790.772 614.249 783.451 601.442C783.451 599.62 783.451 597.798 783.451 595.921Z" fill="#06131A"/>
<path d="M941.794 485.494C944.715 491.333 941.704 496.515 939.787 502.418C939.376 503.72 938.965 505.022 938.541 506.363C937.222 510.53 935.883 514.691 934.544 518.852C933.648 521.672 932.752 524.493 931.858 527.314C929.661 534.237 927.446 541.155 925.223 548.069C918.43 545.013 916.509 542.857 913.716 535.876C912.79 533.62 912.79 533.62 911.846 531.318C911.4 530.165 910.953 529.012 910.494 527.824C913.532 527.824 916.57 527.824 919.7 527.824C920.113 526.66 920.526 525.495 920.951 524.295C924.347 516.37 928.587 508.988 932.818 501.483C933.68 499.945 934.541 498.406 935.429 496.821C937.546 493.042 939.668 489.267 941.794 485.494Z" fill="#D9E4E2"/>
<path d="M851.575 549.91C860.015 552.803 866.733 557.321 874.015 562.333C883.721 568.937 893.499 575.176 903.755 580.91C904.763 581.612 905.772 582.315 906.811 583.038C906.811 584.253 906.811 585.468 906.811 586.719C908.147 587.208 909.484 587.697 910.86 588.2C916.02 590.401 920.261 592.983 924.878 596.151C926.333 597.143 927.788 598.135 929.287 599.157C930.921 600.288 930.921 600.288 932.588 601.443C931.677 604.176 931.677 604.176 930.747 606.964C927.41 608.574 927.41 608.574 923.382 608.805C919.239 606.504 919.239 606.504 916.017 603.283C916.017 601.461 916.017 599.639 916.017 597.762C912.202 594.809 908.471 592.259 904.395 589.71C901.883 588.085 899.373 586.458 896.864 584.828C895.51 583.956 894.155 583.083 892.759 582.184C884.878 577.074 877.081 571.844 869.297 566.589C867.753 565.567 866.21 564.545 864.62 563.492C862.47 562.039 862.47 562.039 860.278 560.557C858.998 559.701 857.717 558.845 856.398 557.963C853.416 555.432 853.416 555.432 851.575 549.91Z" fill="#2E5D64"/>
<path d="M1079.88 494.696C1080.49 494.696 1081.1 494.696 1081.73 494.696C1083.04 507.702 1078.34 518.076 1073.56 530.01C1072.73 532.106 1071.9 534.202 1071.05 536.361C1065.66 549.904 1060.09 563.366 1054.22 576.711C1053.55 578.265 1052.88 579.818 1052.19 581.418C1051.55 582.828 1050.92 584.238 1050.26 585.691C1049.71 586.919 1049.16 588.146 1048.6 589.412C1046.74 592.24 1046.74 592.24 1041.22 594.081C1038.98 598.69 1038.98 598.69 1037.54 603.283C1036.93 602.068 1036.32 600.853 1035.7 599.602C1037.62 594.679 1039.68 589.957 1041.91 585.173C1042.58 583.709 1043.24 582.245 1043.93 580.736C1046.08 576.014 1048.25 571.301 1050.42 566.589C1061.32 542.95 1071.24 519.255 1079.88 494.696Z" fill="#95A0A3"/>
<path d="M991.506 682.423C993.347 687.944 993.347 687.944 991.528 692.119C990.593 693.709 989.658 695.299 988.694 696.938C987.691 698.664 986.689 700.39 985.655 702.168C984.586 703.965 983.517 705.762 982.415 707.614C981.353 709.432 980.291 711.251 979.197 713.125C976.565 717.624 973.917 722.113 971.253 726.594C963.708 724.199 956.57 721.408 949.389 718.082C947.609 717.261 945.829 716.44 943.995 715.594C942.661 714.972 941.327 714.351 939.953 713.71C946.72 711.706 952.472 711.995 959.443 712.524C968.442 711.2 973.934 705.69 979.639 698.958C981.049 696.994 982.459 695.029 983.911 693.005C984.652 691.985 985.392 690.965 986.155 689.914C987.956 687.429 989.733 684.928 991.506 682.423Z" fill="#CD3541"/>
<path d="M1133.28 249.917C1134.49 250.524 1135.71 251.132 1136.96 251.757C1110.23 278.481 1083.49 305.204 1055.95 332.737C1055.04 330.004 1055.04 330.004 1054.11 327.216C1055.81 325.645 1057.52 324.075 1059.27 322.457C1084.6 298.94 1108.93 274.439 1133.28 249.917Z" fill="#F4F7F6"/>
<path d="M807.386 454.207C811.069 456.047 811.069 456.047 812.605 459.585C813.109 461.134 813.613 462.683 814.133 464.278C814.71 466.029 815.288 467.78 815.883 469.583C816.497 471.489 817.111 473.395 817.743 475.358C818.383 477.303 819.023 479.248 819.682 481.252C821.734 487.493 823.767 493.74 825.798 499.988C827.831 506.222 829.868 512.455 831.914 518.685C833.189 522.568 834.456 526.453 835.714 530.342C836.58 532.985 836.58 532.985 837.464 535.682C837.968 537.234 838.472 538.785 838.991 540.384C840.527 544.827 840.527 544.827 844.21 549.91C839.349 550.518 834.489 551.125 829.481 551.751C828.569 549.018 828.569 549.018 827.639 546.229C830.677 546.229 833.715 546.229 836.845 546.229C836.476 545.131 836.107 544.032 835.727 542.9C831.898 531.499 828.076 520.094 824.259 508.688C822.832 504.428 821.403 500.168 819.973 495.909C817.92 489.799 815.875 483.686 813.83 477.572C813.186 475.659 812.542 473.745 811.878 471.774C811.288 470.006 810.698 468.237 810.09 466.415C809.305 464.073 809.305 464.073 808.505 461.684C807.386 457.888 807.386 457.888 807.386 454.207Z" fill="#163B44"/>
<path d="M847.893 524.144C848.576 527.218 848.576 527.218 849.273 530.355C850.857 537.112 850.857 537.112 855.487 539.672C856.627 540.014 857.766 540.356 858.94 540.708C858.94 544.959 858.94 549.21 858.94 553.591C849.135 548.33 842.443 544.377 838.687 533.346C838.687 530.916 838.687 528.487 838.687 525.984C844.21 524.144 844.21 524.144 847.893 524.144Z" fill="#A25456"/>
<path d="M809.228 452.366C811.05 452.974 812.873 453.581 814.751 454.207C816.899 458.75 816.899 458.75 818.915 464.725C819.645 466.861 820.375 468.997 821.127 471.198C822.243 474.574 822.243 474.574 823.382 478.017C824.147 480.261 824.913 482.504 825.701 484.815C831.322 501.449 831.322 501.449 831.322 505.739C829.499 505.739 827.676 505.739 825.798 505.739C823.431 498.732 821.072 491.723 818.719 484.711C817.917 482.325 817.113 479.94 816.307 477.556C815.151 474.131 814.001 470.704 812.852 467.277C812.158 465.214 811.464 463.152 810.749 461.027C809.228 456.047 809.228 456.047 809.228 452.366Z" fill="#3A686F"/>
<path d="M1153.53 855.425C1155.29 855.855 1155.29 855.855 1157.09 856.295C1158.61 856.653 1160.14 857.011 1161.7 857.38C1163.22 857.743 1164.74 858.106 1166.3 858.48C1167.55 858.687 1168.81 858.893 1170.1 859.106C1170.71 858.498 1171.32 857.891 1171.94 857.265C1176.5 857.019 1180.25 856.965 1184.6 858.416C1190.68 859.488 1195.64 857.309 1201.4 855.425C1197.86 859.753 1195.69 861.009 1190.24 862.787C1184.31 864.191 1184.31 864.191 1181.15 870.148C1176.32 870.493 1176.32 870.493 1171.94 870.148C1171.34 867.719 1170.73 865.29 1170.1 862.787C1168.39 862.597 1166.69 862.407 1164.92 862.211C1158.78 860.887 1157.52 859.894 1153.53 855.425Z" fill="#204F57"/>
<path d="M936.27 895.914C948.422 895.914 960.574 895.914 973.094 895.914C973.094 897.129 973.094 898.343 973.094 899.595C975.525 900.202 977.955 900.81 980.459 901.435C962.839 901.435 945.219 901.435 927.064 901.435C927.064 900.828 927.064 900.221 927.064 899.595C930.102 899.595 933.14 899.595 936.27 899.595C936.27 898.38 936.27 897.166 936.27 895.914Z" fill="#6E838A"/>
<path d="M923.382 866.468C927.967 865.753 927.967 865.753 933.681 865.734C935.73 865.727 937.778 865.72 939.888 865.713C943.11 865.745 943.11 865.745 946.397 865.778C948.545 865.756 950.693 865.735 952.906 865.713C954.954 865.72 957.003 865.727 959.113 865.734C960.999 865.741 962.884 865.747 964.827 865.753C966.34 865.989 967.853 866.225 969.412 866.468C970.627 868.29 971.843 870.112 973.095 871.989C955.474 871.989 937.854 871.989 919.7 871.989C920.915 870.167 922.13 868.345 923.382 866.468Z" fill="#60767D"/>
<path d="M999.677 864.167C1002.01 864.395 1002.01 864.395 1004.39 864.627C1008.08 870.148 1008.08 870.148 1007.39 875.095C1007.01 876.499 1006.63 877.904 1006.24 879.351C1001.98 880.616 1001.98 880.616 997.03 881.191C993.578 879.121 993.578 879.121 991.506 875.67C992.533 864.899 992.533 864.899 999.677 864.167Z" fill="#9CB3B5"/>
<path d="M1007.04 893.729C1011.76 894.075 1011.76 894.075 1015.44 897.755C1014.75 903.507 1014.75 903.507 1013.6 908.798C1009.34 910.063 1009.34 910.063 1004.39 910.639C1000.94 908.568 1000.94 908.568 998.871 905.117C999.904 894.278 999.904 894.278 1007.04 893.729Z" fill="#C6B9BE"/>
<path d="M1015.44 413.717C1015.44 415.539 1015.44 417.361 1015.44 419.238C1008.36 425.916 1001.68 430.074 991.852 430.511C990.523 430.435 989.194 430.359 987.824 430.281C987.824 427.851 987.824 425.422 987.824 422.919C989.989 422.426 992.153 421.932 994.384 421.424C1001.83 419.58 1008.48 416.908 1015.44 413.717Z" fill="#6C3134"/>
<path d="M827.64 505.739C828.855 505.739 830.07 505.739 831.322 505.739C831.991 507.611 831.991 507.611 832.674 509.521C836.457 520.021 840.411 530.41 844.7 540.715C846.052 544.389 846.052 544.389 846.052 548.07C841.589 546.307 839.185 545.297 836.837 541.017C836.2 539.017 836.2 539.017 835.551 536.977C835.076 535.519 834.602 534.061 834.113 532.559C833.647 531.034 833.182 529.51 832.703 527.94C832.209 526.422 831.716 524.905 831.207 523.342C827.64 512.144 827.64 512.144 827.64 505.739Z" fill="#2D565E"/>
<path d="M910.494 527.825C914.139 527.825 917.785 527.825 921.541 527.825C922.521 530.155 923.475 532.496 924.418 534.842C924.952 536.144 925.486 537.447 926.036 538.789C927.064 542.549 927.064 542.549 925.223 548.07C920.323 546.197 918.217 545.002 915.528 540.406C914.631 538.164 914.631 538.164 913.716 535.877C913.099 534.373 912.482 532.869 911.846 531.319C911.4 530.166 910.953 529.013 910.494 527.825Z" fill="#C0CBCA"/>
<path d="M998.871 443.164C1003.09 449.486 1002.88 452.339 1002.55 459.728C1004.64 458.511 1006.72 457.294 1008.87 456.04C1011.6 454.47 1014.32 452.9 1017.05 451.331C1018.43 450.526 1019.8 449.72 1021.22 448.89C1022.53 448.137 1023.85 447.384 1025.21 446.608C1026.42 445.904 1027.64 445.201 1028.89 444.476C1029.92 444.043 1030.95 443.61 1032.01 443.164C1033.23 443.771 1034.44 444.379 1035.7 445.005C1033.92 445.982 1032.14 446.959 1030.32 447.966C1027.97 449.279 1025.62 450.592 1023.27 451.906C1022.1 452.547 1020.93 453.187 1019.73 453.847C1013 457.631 1007.95 461.492 1002.55 467.09C1001.34 467.09 1000.12 467.09 998.871 467.09C998.904 465.392 998.904 465.392 998.936 463.661C998.953 462.173 998.969 460.686 998.987 459.153C999.008 457.68 999.029 456.206 999.051 454.688C999.049 450.216 999.049 450.216 997.03 445.005C997.638 444.397 998.245 443.79 998.871 443.164Z" fill="#51666B"/>
<path d="M884.717 568.314C894.132 570.28 903.262 572.421 912.335 575.676C910.512 578.106 908.689 580.535 906.811 583.038C898.421 580.243 891.498 575.761 884.717 570.155C884.717 569.548 884.717 568.94 884.717 568.314Z" fill="#F8F9F9"/>
<path d="M914.176 577.517C915.999 578.124 917.822 578.731 919.7 579.357C919.7 581.786 919.7 584.216 919.7 586.719C921.522 587.326 923.345 587.934 925.223 588.559C925.223 590.989 925.223 593.418 925.223 595.921C918.854 593.622 913.905 590.997 908.652 586.719C912.105 579.587 912.105 579.587 914.176 577.517Z" fill="#D3DFDE"/>
<path d="M887.133 522.764C888.671 523.447 888.671 523.447 890.24 524.144C885.683 526.877 885.683 526.877 881.034 529.666C884.072 529.666 887.11 529.666 890.24 529.666C883.336 535.187 883.336 535.187 879.193 535.187C879.193 536.402 879.193 537.616 879.193 538.868C877.978 538.868 876.763 538.868 875.511 538.868C874.903 540.69 874.296 542.512 873.669 544.389C871.87 538.792 871.28 535.125 873.669 529.666C881.214 522.124 881.214 522.124 887.133 522.764Z" fill="#95484B"/>
<path d="M1083.57 894.074C1086.6 894.074 1089.64 894.074 1092.77 894.074C1092.77 898.933 1092.77 903.792 1092.77 908.798C1089.13 908.798 1085.48 908.798 1081.73 908.798C1082.33 903.939 1082.94 899.08 1083.57 894.074Z" fill="#FEEEF2"/>
<path d="M927.064 894.074C944.685 894.074 962.305 894.074 980.459 894.074C980.459 895.289 980.459 896.504 980.459 897.755C978.029 898.362 975.599 898.97 973.094 899.596C973.094 898.381 973.094 897.166 973.094 895.915C960.943 895.915 948.791 895.915 936.27 895.915C936.27 897.129 936.27 898.344 936.27 899.596C933.232 898.988 930.194 898.381 927.064 897.755C927.064 896.54 927.064 895.326 927.064 894.074Z" fill="#A3B0B5"/>
<path d="M1046.74 364.024C1047.35 365.239 1047.96 366.454 1048.58 367.705C1050.41 368.313 1052.23 368.92 1054.11 369.546C1054.11 375.012 1054.11 380.478 1054.11 386.11C1050.46 387.932 1050.46 387.932 1046.74 389.791C1047.35 384.325 1047.96 378.858 1048.58 373.227C1046.76 372.012 1044.94 370.797 1043.06 369.546C1044.28 367.724 1045.49 365.902 1046.74 364.024Z" fill="#B96A6C"/>
<path d="M1048.58 571.995C1050.75 578.499 1050.1 581.944 1048.58 588.559C1046.76 591.292 1046.76 591.292 1044.9 594.081C1043.69 594.081 1042.47 594.081 1041.22 594.081C1040 597.117 1038.79 600.154 1037.54 603.283C1036.93 602.068 1036.32 600.853 1035.7 599.602C1037.67 594.808 1039.75 590.216 1042.02 585.568C1042.65 584.268 1043.27 582.968 1043.91 581.629C1045.46 578.411 1047.02 575.202 1048.58 571.995Z" fill="#748288"/>
<path d="M1050.42 452.366C1051.64 452.974 1052.86 453.581 1054.11 454.207C1051.13 457.285 1048.13 460.35 1045.13 463.409C1043.47 465.117 1041.8 466.825 1040.08 468.585C1035.7 472.611 1035.7 472.611 1032.01 472.611C1034.45 462.237 1042.08 458.013 1050.42 452.366Z" fill="#7F9396"/>
<path d="M1000.71 450.525C1000.71 453.562 1000.71 456.599 1000.71 459.728C999.497 459.728 998.282 459.728 997.03 459.728C995.815 462.157 994.6 464.586 993.348 467.089C990.917 465.875 988.487 464.66 985.983 463.409C995.819 450.525 995.819 450.525 1000.71 450.525Z" fill="#F35071"/>
<path d="M1037.54 894.074C1039.97 894.074 1042.4 894.074 1044.9 894.074C1044.9 898.933 1044.9 903.792 1044.9 908.798C1042.47 908.798 1040.04 908.798 1037.54 908.798C1037.54 903.939 1037.54 899.08 1037.54 894.074Z" fill="#D9D9D9"/>
<path d="M1004.39 895.914C1008.04 896.825 1008.04 896.825 1011.76 897.755C1011.76 900.791 1011.76 903.828 1011.76 906.957C1008.72 906.349 1005.68 905.742 1002.55 905.116C1003.16 902.08 1003.77 899.043 1004.39 895.914Z" fill="#172F37"/>
<path d="M997.03 866.468C1000.83 867.273 1000.83 867.273 1004.39 868.308C1003.79 871.345 1003.18 874.382 1002.55 877.51C1000.12 877.51 997.693 877.51 995.189 877.51C995.11 874.444 995.114 871.375 995.189 868.308C995.797 867.701 996.404 867.094 997.03 866.468Z" fill="#183038"/>
<path d="M1076.2 525.984C1078.04 531.506 1078.04 531.506 1075.81 536.473C1074.76 538.288 1073.71 540.103 1072.63 541.973C1071.59 543.802 1070.55 545.632 1069.48 547.516C1068.25 549.612 1068.25 549.612 1067 551.751C1064.75 545.006 1065.84 543.225 1068.49 536.797C1069.15 535.16 1069.81 533.523 1070.48 531.836C1072.52 527.825 1072.52 527.825 1076.2 525.984Z" fill="#D43F4B"/>
<path d="M838.687 527.825C841.117 527.825 843.547 527.825 846.051 527.825C848.831 540.674 848.831 540.674 846.051 546.23C842.017 540.093 839.728 535.11 838.687 527.825Z" fill="#BE8B8D"/>
<path d="M787.133 500.218C788.956 500.825 790.779 501.432 792.657 502.058C793.264 505.702 793.872 509.346 794.498 513.101C792.068 512.494 789.637 511.886 787.133 511.26C786.43 508.212 785.819 505.142 785.292 502.058C785.9 501.451 786.507 500.844 787.133 500.218Z" fill="#BDCFCF"/>
<path d="M987.824 430.281C988.432 430.281 989.039 430.281 989.665 430.281C989.665 434.533 989.665 438.784 989.665 443.164C986.627 444.379 983.59 445.594 980.459 446.845C981.432 439.846 983.107 435.586 987.824 430.281Z" fill="#D4DCDB"/>
<path d="M1079.88 494.696C1080.49 494.696 1081.1 494.696 1081.73 494.696C1082.05 503.067 1081.72 509.198 1078.04 516.782C1076.83 516.782 1075.61 516.782 1074.36 516.782C1073.75 517.996 1073.15 519.211 1072.52 520.463C1073.96 511.542 1076.94 503.205 1079.88 494.696Z" fill="#7D8A8F"/>
<path d="M868.146 537.027C869.969 537.027 871.792 537.027 873.67 537.027C873.67 538.849 873.67 540.671 873.67 542.549C875.492 541.941 877.315 541.334 879.193 540.708C877.978 544.352 876.763 547.996 875.511 551.751C874.296 551.751 873.08 551.751 871.828 551.751C871.828 549.929 871.828 548.107 871.828 546.23C870.613 546.23 869.398 546.23 868.146 546.23C868.146 543.193 868.146 540.156 868.146 537.027Z" fill="#B9686A"/>
<path d="M1074.36 516.782C1076.6 523.484 1075.59 524.754 1072.63 530.931C1071.93 532.418 1071.23 533.906 1070.51 535.438C1069.96 536.57 1069.41 537.702 1068.84 538.868C1066.49 534.18 1067.36 532.558 1068.72 527.595C1069.08 526.262 1069.44 524.928 1069.81 523.555C1070.1 522.534 1070.38 521.514 1070.68 520.463C1071.89 520.463 1073.11 520.463 1074.36 520.463C1074.36 519.248 1074.36 518.034 1074.36 516.782Z" fill="#ADB4B6"/>
<path d="M1041.22 594.081C1043.06 599.602 1043.06 599.602 1041.63 603.362C1040.92 604.665 1040.22 605.967 1039.49 607.309C1038.79 608.626 1038.09 609.943 1037.37 611.299C1036.54 612.798 1036.54 612.798 1035.7 614.326C1033.87 614.326 1032.05 614.326 1030.17 614.326C1033.51 607.374 1037.37 600.757 1041.22 594.081Z" fill="#D7D1D3"/>
<path d="M1004.39 340.099C1008.04 340.099 1011.69 340.099 1015.44 340.099C1015.44 341.921 1015.44 343.743 1015.44 345.62C1011.19 345.62 1006.94 345.62 1002.55 345.62C1003.16 343.798 1003.77 341.976 1004.39 340.099Z" fill="#3A363E"/>
<path d="M836.846 533.346C838.061 533.346 839.276 533.346 840.528 533.346C846.052 543.928 846.052 543.928 846.052 548.069C842.484 546.919 842.484 546.919 838.687 544.388C837.306 538.637 837.306 538.637 836.846 533.346Z" fill="#2E5E66"/>
<path d="M1022.81 338.259C1024.63 338.259 1026.45 338.259 1028.33 338.259C1028.94 339.473 1029.55 340.688 1030.17 341.94C1033.82 341.332 1037.46 340.725 1041.22 340.099C1040.61 341.921 1040 343.743 1039.38 345.621C1035.73 346.228 1032.09 346.835 1028.33 347.461C1028.1 346.284 1027.88 345.108 1027.64 343.895C1027.07 342.016 1027.07 342.016 1026.49 340.099C1025.27 339.492 1024.06 338.885 1022.81 338.259Z" fill="#1B3A43"/>
<path d="M989.665 314.333C992.703 317.37 995.741 320.406 998.871 323.535C997.048 323.535 995.226 323.535 993.348 323.535C992.74 324.75 992.132 325.965 991.506 327.216C990.899 325.394 990.291 323.572 989.665 321.695C985.982 319.47 985.982 319.47 982.3 318.014C984.731 318.014 987.161 318.014 989.665 318.014C989.665 316.799 989.665 315.585 989.665 314.333Z" fill="#1D323B"/>
</g>
<defs>
<linearGradient id="paint0_linear_1211_726" x1="1440" y1="103.501" x2="-0.95645" y2="921.315" gradientUnits="userSpaceOnUse">
<stop stop-color="#116690"/>
<stop offset="1" stop-color="#0A1C25"/>
</linearGradient>
<clipPath id="clip0_1211_726">
<rect width="858" height="819" fill="white" transform="translate(522 99)"/>
</clipPath>
</defs>
</svg>
